<?xml version="1.0" encoding="UTF-8" standalone="no"?>
<!-- Created with Inkscape (http://www.inkscape.org/) -->

<svg
   version="1.1"
   id="svg1"
   width="2480"
   height="1581"
   viewBox="0 0 2480 1581"
   sodipodi:docname="logo.svg"
   inkscape:version="1.4 (86a8ad7, 2024-10-11)"
   xmlns:inkscape="http://www.inkscape.org/namespaces/inkscape"
   xmlns:sodipodi="http://sodipodi.sourceforge.net/DTD/sodipodi-0.dtd"
   xmlns="http://www.w3.org/2000/svg"
   xmlns:svg="http://www.w3.org/2000/svg">
  <defs
     id="defs1" />
  <sodipodi:namedview
     id="namedview1"
     pagecolor="#ffffff"
     bordercolor="#000000"
     borderopacity="0.25"
     inkscape:showpageshadow="2"
     inkscape:pageopacity="0.0"
     inkscape:pagecheckerboard="0"
     inkscape:deskcolor="#d1d1d1"
     inkscape:zoom="0.36093307"
     inkscape:cx="1062.5239"
     inkscape:cy="574.89883"
     inkscape:window-width="1920"
     inkscape:window-height="1009"
     inkscape:window-x="-8"
     inkscape:window-y="-8"
     inkscape:window-maximized="1"
     inkscape:current-layer="g2" />
  <g
     inkscape:groupmode="layer"
     inkscape:label="Image"
     id="g1">
    <g
       id="g2"
       transform="translate(-2633.0409,137.13754)">
      <path
         style="fill:#ff6b00;fill-opacity:1"
         d="m 3893.3364,1400.8717 c -2.475,-0.202 -12.15,-0.8641 -21.5,-1.4713 -45.9161,-2.9818 -113.77,-14.2571 -147.75,-24.5515 -1.6182,-0.4903 -1.75,-2.8938 -1.75,-31.9242 v -31.3941 l 3.75,-0.9637 c 2.0625,-0.53 39.4865,-9.3929 83.1644,-19.6953 l 79.4144,-18.7318 85.5856,20.2582 c 47.0721,11.142 107.4106,25.4078 134.0856,31.7018 26.675,6.2941 49.2875,11.6788 50.25,11.9661 1.5703,0.4687 1.75,2.1366 1.75,16.2427 v 15.7203 l -6.25,1.7417 c -57.3181,15.9731 -101.5403,24.1218 -158.75,29.2526 -16.2774,1.4598 -90.3196,2.8016 -102,1.8485 z m -240.5,-48.4182 c -5.6668,-2.091 -4.586,-2.5541 2.0572,-0.8813 2.4435,0.6153 4.4428,1.5153 4.4428,2 0,1.1622 -0.5973,1.0594 -6.5,-1.1187 z m 569.5,-116.0961 v -109.9039 h 28.7914 28.7914 l 56.9586,31.8178 c 31.3272,17.4998 66.8586,37.3446 78.9586,44.0995 12.1,6.7549 22.3843,12.6437 22.8539,13.0861 2.6314,2.4789 -57.6033,47.1264 -93.4957,69.3015 -34.4828,21.3041 -86.9749,47.8344 -118.1082,59.6936 l -4.75,1.8094 z m -625.5,55.1585 c -6.05,-1.4938 -12.2439,-3.0291 -13.7642,-3.4118 l -2.7642,-0.6958 0.2642,-31.1874 0.2642,-31.1875 26.8077,-6.432 26.8076,-6.432 12.4423,2.8169 12.4424,2.8169 -0.01,32.5752 -0.01,32.5751 -24.7442,5.7595 c -13.6093,3.1678 -25.1943,5.7054 -25.7443,5.6393 -0.55,-0.066 -5.95,-1.3425 -12,-2.8364 z m 473.311,-19.9086 c -47.679,-11.3596 -86.9227,-20.8975 -87.2083,-21.1954 -0.2855,-0.2978 5.6495,-1.9714 13.1891,-3.7189 7.5395,-1.7476 47.0054,-11.0663 87.702,-20.7084 40.6966,-9.6421 74.5591,-17.5311 75.25,-17.5311 0.9883,0 1.2562,8.9557 1.2562,42 0,39.37 -0.1096,41.994 -1.75,41.9038 -0.9625,-0.053 -40.7601,-9.3904 -88.439,-20.75 z m -571.311,-3.5681 c -16.1211,-3.9811 -17.4032,-4.4789 -24.7987,-9.6306 -6.3308,-4.4099 -7.4601,-5.5722 -6,-6.175 1.952,-0.8059 47.998,-11.7801 49.4274,-11.7801 0.4792,0 0.8713,7.2 0.8713,16 0,12.191 -0.2975,15.9743 -1.25,15.8919 -0.6875,-0.06 -8.9,-1.9973 -18.25,-4.3062 z m 223.5,-17.5857 c 0,-12.9311 0.2992,-17.001 1.25,-17.0042 2.3019,-0.01 70.75,16.4166 70.75,16.9767 0,0.4958 -69.436,17.1145 -71.25,17.053 -0.4125,-0.014 -0.75,-7.6755 -0.75,-17.0255 z m 97,-38.0721 c -36.575,-8.7223 -73.3625,-17.4857 -81.75,-19.4741 l -15.25,-3.6153 v -20.4193 -20.4192 h 17.5 17.5 v -11 -11 h 201.5 201.5 v 18.9809 c 0,18.8592 -0.014,18.9844 -2.25,19.5146 -1.2375,0.2935 -16.425,3.8729 -33.75,7.9543 -17.325,4.0814 -77.3211,18.2498 -133.3246,31.4854 -56.0036,13.2357 -102.5786,24.0168 -103.5,23.9582 -0.9215,-0.059 -31.6004,-7.2431 -68.1754,-15.9655 z m -410.5784,-5.6349 c -12.735,-11.1425 -55.9703,-53.6235 -57.5469,-56.543 -0.8966,-1.6603 3.3642,-1.75 83.1089,-1.75 h 84.054 l -0.2688,22.7273 -0.2688,22.7274 -42.5,10.223 c -23.375,5.6227 -45.2352,10.8583 -48.5784,11.6346 l -6.0784,1.4115 z m 195.5784,-45.1926 -23.5,-5.6804 -0.3103,-3.71 -0.3104,-3.71 h 39.5604 39.5603 v 7 7 h -5.25 c -2.8875,7e-4 -9.8912,1.1257 -15.5637,2.5 -5.6725,1.3743 -10.3975,2.4494 -10.5,2.3891 -0.1024,-0.06 -10.7613,-2.6658 -23.6863,-5.79 z m 910,-50.7158 c -10.175,-5.7655 -19.0435,-10.8054 -19.7078,-11.1998 -0.8387,-0.4979 3.5012,-9.1158 14.2016,-28.2009 8.4751,-15.1162 15.7686,-27.4016 16.2078,-27.3009 2.0854,0.478 45.7518,25.1773 46.0401,26.042 0.4685,1.4056 -36.2479,51.1641 -37.7417,51.1478 -0.275,0 -8.825,-4.7227 -19,-10.4882 z m -757,-47.3028 c 0,-17.555 0.2731,-32.63 0.607,-33.5 0.5431,-1.4153 6.2791,-1.5818 54.5,-1.5818 h 53.893 v 33.5 33.5 h -54.5 -54.5 z m 172,-1.5818 v -33.5 h 78 78 v 33.5 33.5 h -78 -78 z m 219,0 v -33.5 h 78 78 v 33 33 h -41 -41 v -3.5957 c 0,-5.5449 -2.7582,-9.1615 -9.5,-12.4566 -12.2052,-5.9653 -29.6661,-6.223 -41.9083,-0.6183 -8.0023,3.6636 -10.5917,6.7969 -10.5917,12.8166 v 4.854 h -6 -6 z m 218,17 c 0,-10.3067 0.3572,-15.5 1.066,-15.5 1.0922,0 52.6686,28.5825 54.384,30.1383 0.534,0.4843 -11.3999,0.8617 -27.25,0.8617 h -28.2 z m 36.2595,-30.7884 -36.2173,-20.2116 -0.021,-36.35697 c -0.02,-33.9576 0.092,-36.3135 1.6964,-35.6979 4.4928,1.724 100.5722,56.14627 100.9747,57.19507 0.3654,0.9524 -27.2329,51.8331 -29.6002,54.5714 -0.3384,0.3914 -16.913,-8.3836 -36.8325,-19.5 z m 119.2405,-40.83 c -36.3,-20.35457 -80.175,-44.96737 -97.5,-54.69497 l -31.5,-17.6866 33,-0.6144 c 34.5907,-0.644 38.0829,-1.0666 47.1555,-5.7052 13.8257,-7.0688 9.8632,-17.0521 -9.1555,-23.0667 -4.507,-1.4253 -36.244,-1.6087 -321.8523,-1.8597 -251.3125,-0.2209 -316.7512,-0.5346 -316.3638,-1.5163 0.5583,-1.4148 238.6538,-454.02509 238.9936,-454.3176 0.1224,-0.10532 76.5784,-16.99952 169.9023,-37.54266 93.3239,-20.54315 169.5987,-37.43229 169.4995,-37.53143 -0.1778,-0.17785 -206.0192,10.91673 -224.9293,12.1234 l -9.75,0.62216 V 270.24931 c 0,-111.03545 -0.073,-115.40958 -1.8818,-118.37547 -2.5916,-4.24996 -7.0773,-6.03617 -10.6999,-4.26068 -1.5041,0.7372 -3.6752,2.6098 -4.8247,4.16132 -1.9734,2.66367 -2.1065,4.26655 -2.3873,28.75 -0.1635,14.26098 -0.6265,25.92905 -1.0288,25.92905 -0.4023,0 -7.0185,-0.91009 -14.7026,-2.02242 -7.6842,-1.11233 -20.2712,-2.29913 -27.9712,-2.63734 -16.476,-0.72369 -17.1205,-0.58899 -53.5,11.18059 -28.8928,9.34746 -38.4869,11.7282 -47.5,11.78694 -8.5036,0.0554 -20.4391,-3.09764 -43.1595,-11.40167 -8.8878,-3.24835 -16.4298,-5.9061 -16.7601,-5.9061 -0.3303,0 -0.4835,20.5875 -0.3405,45.75 l 0.2601,45.75 14.5,5.17535 c 7.975,2.84644 19.3857,6.39743 25.3572,7.89108 17.6955,4.42618 20.4716,3.98781 86.1428,-13.60272 27.6901,-7.417 35.7563,-7.57385 69.75,-1.35632 l 8.75,1.60039 v 43.80634 43.80634 l -8.25,0.63476 c -4.5375,0.34912 -168.9,9.3644 -365.25,20.03395 -196.3537,10.66956 -360.0412,19.62313 -363.7537,19.89683 l -6.75,0.49764 0.027,-153.69182 0.027,-153.69182 11.2229,-9.60099 c 116.741,-99.869917 258.8926,-162.35247 413.7229,-181.85126 34.7407,-4.37512 54.7074,-5.475816 99.5,-5.485095 43.4939,-0.009 56.1492,0.616586 90.5,4.473745 80.2003,9.005463 158.0251,30.072845 232.5,62.9383833 18.8708,8.32764 58.5883,28.6833697 77,39.4635497 20.5325,12.02189 54.7169,34.80187 74,49.31243 161.9223,121.846967 266.3099,299.674567 290.4255,494.749237 4.019,32.51018 4.5745,43.19682 4.5745,88 0,44.73586 -0.5459,55.2743 -4.5583,88 -8.3724,68.28747 -28.4574,140.8133 -55.6641,201 -2.9835,6.6 -5.8854,13.2375 -6.4489,14.75 -0.5634,1.5125 -1.3596,2.75 -1.7694,2.75 -0.4098,0 -7.2283,-3.6015 -15.1522,-8.0034 -7.9239,-4.4018 -16.7865,-8.9018 -19.6946,-10 -9.8566,-3.7219 -19.6157,-1.9851 -22.7346,4.0461 -2.1097,4.0797 -1.3651,8.275 2.506,14.1193 3.6361,5.4894 7.7032,8.4059 25.5161,18.2967 7.7,4.2756 14.1342,7.8931 14.2981,8.039 0.2883,0.2565 -25.5057,47.29307 -26.7047,48.69727 -0.3264,0.3822 -30.2934,-15.9588 -66.5934,-36.3134 z m -740.5525,-21.13157 c 3.2751,-6.1875 10.6752,-20.25 16.4446,-31.25 l 10.4899,-20 29.059,-0.2651 29.059,-0.2651 v 31.5151 31.5151 h -45.5037 -45.5036 z m 148.0525,-20.25 v -31.5 h 78 78 v 31.5 31.5 h -78 -78 z m 219,0 v -31.5 h 78 78 v 31.5 31.5 h -78 -78 z m -607,-265.49271 c 0,-161.73658 0.2542,-203.00828 1.25,-203.01214 0.6875,-0.003 94.625,-10.08985 208.75,-22.41594 114.125,-12.32609 207.6093,-22.30211 207.7429,-22.16891 0.1336,0.13319 -64.7072,101.45786 -144.0907,225.16593 l -144.3335,224.92377 -64.6593,0.2573 -64.6594,0.2573 z M 3196.9598,433.29831 c 26.0481,-74.96408 60.1065,-139.61348 106.0721,-201.34478 21.2291,-28.51055 38.1905,-48.22964 65.0373,-75.61136 l 17.2672,-17.61135 v 144.86135 144.86136 h -3.0537 c -3.0557,0 -176.2301,16.44206 -185.2031,17.58412 l -4.7568,0.60543 z"
         id="path3" />
      <path
         style="fill:#545454"
         d="m 2983.6606,1432.014 c -7.9371,-2.4818 -16.0956,-9.1271 -18.2628,-14.8756 -0.729,-1.9336 -1.0614,-44.4402 -1.0614,-135.75 v -132.9349 h -111.5 -111.5 v -123 -122.99997 h 108.5 108.5 v -202 -202 l -148.25,-0.0789 c -81.5375,-0.0434 -147.8,-0.25138 -147.25,-0.46213 3.3886,-1.29842 501.733,-49.96977 531,-51.86069 4.4,-0.28428 47.9133,-4.36018 96.6963,-9.05755 48.7829,-4.69743 90.1381,-8.54073 91.9004,-8.54073 h 3.2041 l -0.4004,-216.25 c -0.4298,-232.16206 -0.6505,-220.9681867 4.4753,-227.055037 3.2285,-3.833824 5.8976,-4.177331 9.4211,-1.21248 6.646,5.59218 6.2032,-10.654985 6.2032,227.637477 v 215.76368 l 6.75,-0.49764 c 3.7125,-0.2737 167.4,-9.22727 363.75,-19.89683 196.35,-10.66955 360.7125,-19.68483 365.25,-20.03395 l 8.25,-0.63476 v -43.80634 -43.80634 l -8.75,-1.60039 c -33.9937,-6.21753 -42.0599,-6.06068 -69.75,1.35632 -65.6712,17.59053 -68.4473,18.0289 -86.1428,13.60272 -5.9715,-1.49365 -17.3822,-5.04464 -25.3572,-7.89108 l -14.5,-5.17535 -0.2601,-45.75 c -0.143,-25.1625 0.01,-45.75 0.3405,-45.75 0.3303,0 7.8723,2.65775 16.7601,5.9061 22.7204,8.30403 34.6559,11.45709 43.1595,11.40167 9.0131,-0.0587 18.6072,-2.43948 47.5,-11.78694 36.3795,-11.76958 37.024,-11.90428 53.5,-11.18059 7.7,0.33821 20.287,1.52501 27.9712,2.63734 7.6841,1.11233 14.3003,2.02242 14.7026,2.02242 0.4023,0 0.8653,-11.66807 1.0288,-25.92905 0.2808,-24.48345 0.4139,-26.08633 2.3873,-28.75 1.1495,-1.55152 3.3206,-3.42412 4.8247,-4.16132 3.6226,-1.77549 8.1083,0.0107 10.6999,4.26068 1.8086,2.96589 1.8782,7.34002 1.8818,118.37547 V 385.5451 l 9.75,-0.62216 c 18.9101,-1.20667 224.7515,-12.30125 224.9293,-12.1234 0.099,0.0991 -76.1756,16.98828 -169.4995,37.53143 -93.3239,20.54314 -169.7799,37.43734 -169.9023,37.54266 -0.3398,0.29251 -238.4353,452.9028 -238.9936,454.3176 -0.3874,0.9817 65.0513,1.2954 316.3638,1.5163 285.6083,0.251 317.3453,0.4344 321.8523,1.8597 23.1251,7.3133 23.1251,19.7957 0,26.6798 -3.8226,1.1379 -12.7372,1.5949 -37.8567,1.9408 -18.0712,0.2488 -32.4712,0.8054 -32,1.2369 0.4712,0.4315 44.0567,24.9728 96.8567,54.5361 52.8,29.56327 96.2847,53.91217 96.6327,54.10857 0.6312,0.3563 28.2143,-48.63177 27.6596,-49.12397 -0.1607,-0.1427 -6.5923,-3.7576 -14.2923,-8.0332 -17.8129,-9.8908 -21.88,-12.8073 -25.5161,-18.2967 -3.8711,-5.8443 -4.6157,-10.0396 -2.506,-14.1193 3.2148,-6.2168 13.5505,-7.8348 23.611,-3.6961 3.0738,1.2645 10.6709,5.1313 16.8822,8.5928 6.2114,3.4615 14.0464,7.6579 17.4112,9.3253 6.3025,3.1231 26.2834,14.1725 244.1177,134.99577 70.4,39.0479 142.625,79.1064 160.5,89.019 17.875,9.9126 34.567,19.5165 37.0933,21.3419 6.341,4.5817 10.097,10.304 10.6687,16.2539 0.413,4.2978 0.1298,5.2142 -2.5313,8.1926 -2.7533,3.0814 -3.5536,3.3847 -9.8635,3.7379 -5.2374,0.2931 -8.1641,-0.1094 -12.3318,-1.6962 -3.0055,-1.1443 -5.7424,-1.7495 -6.082,-1.345 -0.9581,1.141 -80.7783,145.5414 -81.3873,147.2354 -0.4033,1.1215 9.4179,7.051 38.9239,23.5 l 39.4632,22 -111.4681,0.2543 -111.4681,0.2544 -110.7585,-61.8757 c -60.9172,-34.0316 -113.2335,-63.1106 -116.2585,-64.6199 -3.025,-1.5094 -8.65,-4.6725 -12.5,-7.0292 -3.85,-2.3566 -37.825,-21.4605 -75.5,-42.453 -37.675,-20.9925 -69.6824,-39.01 -71.1275,-40.0389 -2.7419,-1.9522 -9.9422,-6.0059 -103.3311,-58.1742 l -56.9549,-31.8178 h -28.9387 -28.9387 l 0.3973,147.6134 0.3973,147.6134 -4.3108,3.8264 c -6.6834,5.9324 -12.3759,7.4545 -27.6892,7.4036 -15.1305,-0.05 -21.6955,-1.9613 -27.5515,-8.0196 l -3.4485,-3.5677 0.252,-42.3668 c 0.2356,-39.6274 0.1386,-42.4005 -1.5,-42.8897 -0.9636,-0.2876 -23.577,-5.6726 -50.252,-11.9667 -26.675,-6.294 -87.0135,-20.5598 -134.0856,-31.7018 l -85.5856,-20.2582 -79.4144,18.7318 c -43.6779,10.3024 -81.1019,19.1653 -83.1644,19.6953 l -3.75,0.9637 v 52.3484 52.3485 l -3.25,4.8549 c -2.5179,3.7612 -4.8042,5.6451 -10.1492,8.363 -6.6586,3.3858 -7.2862,3.5081 -18,3.5081 -9.9145,0 -11.6886,-0.2803 -16.6008,-2.6226 -6.3441,-3.0252 -11.7054,-7.9729 -13.6478,-12.5953 -1.0379,-2.4699 -1.3522,-10.4153 -1.3522,-34.1818 v -30.9639 l -7.75,-1.6286 c -4.2625,-0.8957 -16.525,-3.6931 -27.25,-6.2165 l -19.5,-4.5879 -8,1.6588 c -4.4,0.9123 -9.6875,2.1252 -11.75,2.6953 l -3.75,1.0365 -0.022,34.203 c -0.025,38.8868 -0.082,39.2123 -8.0691,46.0489 -16.2602,13.9182 -50.1733,7.5569 -54.8734,-10.2928 -0.5146,-1.9542 -1.0706,-24.4579 -1.2356,-50.0082 l -0.2999,-46.455 -80,-19.2363 c -44,-10.58 -81.0833,-19.2627 -82.4073,-19.295 -1.324,-0.032 -22.924,4.8678 -48,10.8889 -25.076,6.0212 -79.5677,19.0872 -121.0927,29.0357 -41.525,9.9485 -82.925,19.8757 -92,22.0603 -9.075,2.1847 -27.525,6.6126 -41,9.8397 l -24.5,5.8674 -0.5,29.3747 c -0.4636,27.2379 -0.6483,29.6293 -2.5388,32.8747 -2.534,4.3501 -10.0366,9.4994 -16.7418,11.4907 -6.1446,1.8247 -18.668,1.8606 -24.3952,0.07 z m 1946.6758,-103.7924 c 8.525,-15.4986 17.383,-31.5845 19.6845,-35.7466 l 4.1844,-7.5673 -23.6233,-13.2383 c -13.0875,-7.3341 -24.0048,-12.8567 -24.4787,-12.3828 -1.9769,1.9769 -39.819,70.6514 -39.0783,70.9179 0.4463,0.1606 11.1614,6.1232 23.8114,13.2502 12.65,7.127 23.225,12.9555 23.5,12.9522 0.275,0 7.475,-12.6867 16,-28.1853 z m -1787.866,-44.8436 c 60.1513,-14.3945 109.6988,-26.4715 110.1056,-26.8378 0.6757,-0.6083 -221.1122,-54.1963 -223.9896,-54.1199 -0.9842,0.026 -1.25,11.5426 -1.25,54.1582 v 54.125 l 2.884,-0.5768 c 1.5862,-0.3172 52.0987,-12.3542 112.25,-26.7487 z m 492.1103,5.335 24.7442,-5.7595 0.01,-32.5751 0.01,-32.5752 -12.4424,-2.8169 -12.4423,-2.8169 -26.8076,6.432 -26.8077,6.432 -0.2642,31.1875 -0.2642,31.1874 2.7642,0.6958 c 11.0346,2.7776 24.9334,6.1483 25.7642,6.2482 0.55,0.066 12.135,-2.4715 25.7443,-5.6393 z m 525.7557,-38.2595 c 0,-33.0443 -0.2679,-42 -1.2562,-42 -0.6909,0 -34.5534,7.889 -75.25,17.5311 -40.6966,9.6421 -80.1625,18.9608 -87.702,20.7084 -7.5396,1.7475 -13.4746,3.4211 -13.1891,3.7189 0.6008,0.6267 173.019,41.8009 175.6473,41.9454 1.6404,0.09 1.75,-2.5338 1.75,-41.9038 z m 675.8688,3.1348 c 7.7722,-13.9508 14.1312,-25.7242 14.1312,-26.1631 0,-1.3385 -31.1538,-18.2252 -31.9505,-17.3184 -1.9832,2.2568 -29.1709,52.4825 -28.8807,53.3531 0.1836,0.5507 7.0832,4.7948 15.3325,9.4313 11.4056,6.4105 15.2667,8.1464 16.1175,7.2462 0.6153,-0.6512 7.4778,-12.5982 15.25,-26.5491 z m -1317.8688,2.8652 c 0,-8.8 -0.3932,-16 -0.8738,-16 -1.2034,0 -47.9949,11.4038 -56.6262,13.8007 -3.9244,1.0898 -6.3409,2.1949 -5.5,2.5152 0.825,0.3143 7.125,1.9737 14,3.6876 6.875,1.714 20.15,5.0657 29.5,7.4483 9.35,2.3825 17.5625,4.3806 18.25,4.4401 0.9525,0.082 1.25,-3.7009 1.25,-15.8919 z m 240.75,2.788 c 19.3875,-4.5446 35.25,-8.5115 35.25,-8.8155 0,-0.5601 -68.4481,-16.9845 -70.75,-16.9767 -0.9508,0 -1.25,4.0731 -1.25,17.0042 0,9.35 0.3375,17.0115 0.75,17.0255 0.4125,0.014 16.6125,-3.6929 36,-8.2375 z m 1224.9103,-27.8144 13.1603,-23.976 -6.1603,-3.4208 c -131.7682,-73.1704 -129.077,-71.7274 -130.3977,-69.9213 -2.0453,2.7972 -25.2643,45.1299 -25.2458,46.0281 0.01,0.449 4.6217,3.3684 10.25,6.4875 5.6283,3.1191 35.8598,19.8816 67.1813,37.25 31.3214,17.3684 57.1964,31.5676 57.5,31.5538 0.3035,-0.014 6.474,-10.8144 13.7122,-24.0013 z m -1597.8754,-6.5184 c 17.2895,-4.1497 33.0734,-7.7849 35.0753,-8.0784 2.0019,-0.2935 24.5648,-5.5734 50.1398,-11.7332 l 46.5,-11.1996 0.2688,-22.724 0.2688,-22.724 -245.2688,0.252 -245.2688,0.252 -0.3164,2.75 c -0.174,1.5125 -0.1266,2.75 0.1053,2.75 0.2319,0 20.1743,4.742 44.3164,10.5377 55.254,13.2647 41.9298,10.0705 164.3947,39.4105 57.475,13.7697 106.975,25.6698 110,26.4446 3.025,0.7748 6.1411,1.4534 6.9247,1.5079 0.7836,0.055 15.5706,-3.2959 32.8602,-7.4455 z m 1362.1388,-19.6143 c 8.3003,-14.9375 14.9755,-27.2722 14.8338,-27.4104 -1.9994,-1.9502 -47.2565,-26.3172 -47.8004,-25.7363 -2.2968,2.4531 -30.1904,53.7389 -29.4011,54.0575 0.5192,0.2095 11.069,6.1558 23.444,13.2141 12.375,7.0582 22.7998,12.8784 23.1662,12.9337 0.3664,0.055 7.4572,-12.1211 15.7575,-27.0586 z m -757.2483,-0.9057 c 56.0035,-13.2356 115.9996,-27.404 133.3246,-31.4854 17.325,-4.0814 32.5125,-7.6608 33.75,-7.9543 2.2356,-0.5302 2.25,-0.6554 2.25,-19.5146 v -18.9809 h -201.5 -201.5 v 11 11 h -17.5 -17.5 v 20.4192 20.4193 l 15.25,3.6153 c 8.3875,1.9884 45.175,10.7518 81.75,19.4741 36.575,8.7224 67.2539,15.9069 68.1754,15.9655 0.9214,0.059 47.4964,-10.7225 103.5,-23.9582 z m 653.6579,-56.5151 c 8.1583,-14.599 14.6169,-27.0784 14.3525,-27.7319 -0.502,-1.2409 -30.5496,-18.1771 -31.1332,-17.5482 -0.9194,0.9907 -29.5526,53.0178 -29.5526,53.6977 0,0.703 29.7557,18.0923 31,18.1165 0.275,0.01 7.175,-11.935 15.3333,-26.5341 z m -1006.147,17.0812 c 5.6725,-1.3743 12.6762,-2.4993 15.5637,-2.5 h 5.25 v -7 -7 h -39.5603 -39.5604 l 0.3104,3.71 0.3103,3.71 23.5,5.6804 c 12.925,3.1242 23.5839,5.7297 23.6863,5.79 0.1025,0.06 4.8275,-1.0148 10.5,-2.3891 z m 1153.7264,-39.0333 c 7.198,-12.9427 13.0806,-23.8552 13.0724,-24.25 -0.014,-0.6685 -130.6853,-73.4861 -133.9851,-74.6642 -1.1124,-0.3971 -4.8428,5.5081 -14.436,22.8521 -7.1149,12.8632 -12.8277,23.7716 -12.6951,24.2409 0.2169,0.7681 132.7084,75.0103 134.2938,75.2521 0.3644,0.056 6.5519,-10.4883 13.75,-23.4309 z m -234.3697,-28.3314 c 12.225,-21.9863 14.4345,-26.5796 13.3079,-27.6655 -1.3087,-1.2614 -44.5411,-25.4196 -46.1493,-25.7881 -0.7017,-0.1608 -31.9087,54.4488 -31.4004,54.948 0.1093,0.1074 7.1738,4.1296 15.6988,8.9384 20.1749,11.3801 32.3293,17.4635 33.1922,16.6129 0.3806,-0.3753 7.2885,-12.5458 15.3508,-27.0457 z m -691.543,-35.6366 v -33.5 h -53.893 c -48.2209,0 -53.9569,0.1665 -54.5,1.5818 -0.3339,0.87 -0.607,15.945 -0.607,33.5 v 31.9182 h 54.5 54.5 z m 219,0 v -33.5 h -78 -78 v 33.5 33.5 h 78 78 z m 75,28.646 c 0,-6.0197 2.5894,-9.153 10.5917,-12.8166 12.2422,-5.6047 29.7031,-5.347 41.9083,0.6183 6.7418,3.2951 9.5,6.9117 9.5,12.4566 v 3.5957 h 41 41 v -33 -33 h -78 -78 v 33.5 33.5 h 6 6 z m 261.45,2.9923 c -1.7154,-1.5558 -53.2918,-30.1383 -54.384,-30.1383 -0.7088,0 -1.066,5.1933 -1.066,15.5 v 15.5 h 28.2 c 15.8501,0 27.784,-0.3774 27.25,-0.8617 z m 32.9799,-52.9683 c 8.0974,-14.4816 14.5155,-26.87 14.2623,-27.5298 -0.4025,-1.0488 -96.4819,-55.47107 -100.9747,-57.19507 -1.6042,-0.6156 -1.7161,1.7403 -1.6964,35.6979 l 0.021,36.35697 36.2173,20.2116 c 19.9195,11.1164 36.4941,19.8914 36.8325,19.5 0.3383,-0.3914 7.2404,-12.5601 15.3379,-27.0416 z m -588.4299,-74.68507 v -31.5151 l -29.059,0.2651 -29.059,0.2651 -10.4899,20 c -5.7694,11 -13.1695,25.0625 -16.4446,31.25 l -5.9548,11.25 h 45.5036 45.5037 z m 219,0.015 v -31.4999 h -78 -78 v 31.5 31.5 h 78 78 z m 219,0 v -31.4999 h -78 -78 v 31.5 31.5 h 78 78 z M 3814.9886,678.02976 c 79.3835,-123.70807 144.2243,-225.03274 144.0907,-225.16593 -0.1336,-0.1332 -93.6179,9.84282 -207.7429,22.16891 -114.125,12.32609 -208.0625,22.41327 -208.75,22.41594 -0.9958,0.004 -1.25,41.27556 -1.25,203.01214 v 203.00731 l 64.6594,-0.2573 64.6593,-0.2573 z"
         id="path2" />
    </g>
  </g>
</svg>
