<svg id="Layer_1" xmlns="http://www.w3.org/2000/svg" viewBox="0 0 200 78"><style>.st0{fill:#004d41}.st1{fill-rule:evenodd;clip-rule:evenodd;fill:#fff}.st2,.st3{fill:none;stroke:#fff;stroke-width:.1092;stroke-linecap:round;stroke-miterlimit:3.8637}.st3{fill:#fff}.st4{fill:#00539f}.st5{fill:#fff}</style><path class="st0" d="M9.5.8h180.9c4.8 0 8.7 3.9 8.7 8.7v59.1c0 4.8-3.9 8.7-8.7 8.7H9.5c-4.8 0-8.7-3.9-8.7-8.7V9.5C.9 4.6 4.7.8 9.5.8z"/><path class="st1" d="M64.8 53.7c0-.2 0-1 .2-1.1.2-.2 1.2-.1 1.5-.1 2.3 0 3.5 1.2 3.5 3.6 0 1.3-.2 2.4-1.3 3.2-1 .6-1.9.6-3 .6h-.8l-.1-6.2zm0 6.8h.8c1.3 0 2.8-.1 4 .6 1.3.8 1.8 2 1.8 3.6 0 2.6-1.1 4.1-3.6 4.1-1 0-2.2 0-2.7-1.1-.3-.8-.3-2.5-.3-3.4v-3.8zm-2.7 3.8c0 .9 0 2.9-.2 3.6-.3.9-1.4.9-2.2.9v.6c1.4 0 2.9-.1 4.3-.1 1.1 0 2.2.1 3.3.1 1.5 0 3.3.1 4.7-.7 1.4-.8 2.5-2.1 2.5-3.9 0-1.6-.8-2.9-2-3.7-1-.7-2.3-1-3.7-1.1 1.9-.6 3.8-1.7 3.8-4.1 0-3.6-3.6-4.3-6.3-4.2-1 0-2 .1-3 .1-1.2 0-2.4-.1-3.7-.1v.6c.8 0 1.9 0 2.2.9.2.7.2 2.7.2 3.6l.1 7.5z"/><path class="st2" d="M64.8 53.7c0-.2 0-1 .2-1.1.2-.2 1.2-.1 1.5-.1 2.3 0 3.5 1.2 3.5 3.6 0 1.3-.2 2.4-1.3 3.2-1 .6-1.9.6-3 .6h-.8l-.1-6.2zm0 6.8h.8c1.3 0 2.8-.1 4 .6 1.3.8 1.8 2 1.8 3.6 0 2.6-1.1 4.1-3.6 4.1-1 0-2.2 0-2.7-1.1-.3-.8-.3-2.5-.3-3.4v-3.8zm-2.7 3.8c0 .9 0 2.9-.2 3.6-.3.9-1.4.9-2.2.9v.6c1.4 0 2.9-.1 4.3-.1 1.1 0 2.2.1 3.3.1 1.5 0 3.3.1 4.7-.7 1.4-.8 2.5-2.1 2.5-3.9 0-1.6-.8-2.9-2-3.7-1-.7-2.3-1-3.7-1.1 1.9-.6 3.8-1.7 3.8-4.1 0-3.6-3.6-4.3-6.3-4.2-1 0-2 .1-3 .1-1.2 0-2.4-.1-3.7-.1v.6c.8 0 1.9 0 2.2.9.2.7.2 2.7.2 3.6l.1 7.5z"/><path class="st1" d="M83.1 67.1c-.7.7-1.8 1.5-2.8 1.5-1 0-1.6-.9-1.6-1.9 0-2.2 2.9-3.2 4.4-4v4.4zm-2.8-3.7c-1.6.8-4.1 1.7-4.1 4 0 1.5 1.3 2.4 2.7 2.4 1.6 0 3.1-.9 4.3-1.9.3 1.1 1.2 1.9 2.2 1.9.9 0 1.9-.9 2.3-1.8l-.5-.3c-.3.4-.5.9-1 .9-1 0-.9-2-.9-2.7v-4.4c0-3.1-1.3-3.9-4.1-3.9-1.3 0-4.7.4-4.7 2.4 0 .6.4 1 1 1s1-.6 1-1.2c.1-1.4 1.1-1.5 2.4-1.5 2.1 0 2.2 1.3 2.2 3.1 0 .3.1.6-.2.8l-2.6 1.2z"/><path class="st2" d="M83.1 67.1c-.7.7-1.8 1.5-2.8 1.5-1 0-1.6-.9-1.6-1.9 0-2.2 2.9-3.2 4.4-4v4.4zm-2.8-3.7c-1.6.8-4.1 1.7-4.1 4 0 1.5 1.3 2.4 2.7 2.4 1.6 0 3.1-.9 4.3-1.9.3 1.1 1.2 1.9 2.2 1.9.9 0 1.9-.9 2.3-1.8l-.5-.3c-.3.4-.5.9-1 .9-1 0-.9-2-.9-2.7v-4.4c0-3.1-1.3-3.9-4.1-3.9-1.3 0-4.7.4-4.7 2.4 0 .6.4 1 1 1s1-.6 1-1.2c.1-1.4 1.1-1.5 2.4-1.5 2.1 0 2.2 1.3 2.2 3.1 0 .3.1.6-.2.8l-2.6 1.2z"/><path class="st3" d="M100.3 61.3c0-2.6-1.4-3.7-3.8-3.7-1.8 0-3.2.8-4.1 2.4h-.1l-.3-2.4c-1.3.2-2.2.7-3.5.8v.5c.8 0 1.5-.1 1.7.9.1.6.1 2.5.1 3.3v3.3c0 1.8.1 2.4-1.8 2.6v.5c1 0 2-.1 3-.1.9 0 1.9.1 2.8.1V69c-2-.1-1.8-.9-1.8-2.7v-4.2c0-2 1.3-3.6 3.3-3.6 2.4 0 2.4 2.6 2.4 4.5v3.4c0 1.8.1 2.4-1.8 2.6v.5c1 0 2-.1 3-.1.9 0 1.9.1 2.8.1V69c-2-.1-1.8-.9-1.8-2.7l-.1-5zM107.8 51.1l-4.1.9v.5c.6.1 1.3.1 1.7.7.3.5.3 1.9.3 2.6v10.7c0 1.8.1 2.4-1.8 2.6v.5c1 0 1.9-.1 2.9-.1.9 0 1.9.1 2.9.1v-.5c-2-.1-1.8-.9-1.8-2.7v-1.7l.5-.5 4.9 5.5c.5 0 1-.1 1.6-.1.5 0 1 .1 1.6.1v-.5c-.9-.2-1.1-.6-1.8-1.2l-4.9-5.1 2.3-2.8c.9-1 1.1-1.5 2.5-1.5v-.5c-.7 0-1.5.1-2.2.1-.7 0-1.5-.1-2.2-.1v.5c.4 0 1.4 0 1.4.7 0 .6-1.5 2.3-1.9 2.7l-1.7 1.9-.2-12.8zM74.3 32.1c-1.8-1.2-3.1-1.7-5.2-1.7-5.2 0-8.9 4-8.9 9.4 0 5.5 3.5 9 8.7 9 2.2 0 3.9-.6 5.6-2l.6 1.4h.3v-5.9h-.5c-.8 3.2-2.1 5.9-5.6 5.9-4.5 0-6-4.3-6-8.4 0-4 1.4-8.8 6-8.8 3 0 5 2.1 5.4 5.1h.6l-.2-5.3h-.4l-.4 1.3z"/><path class="st1" d="M83.5 36.7c-3.1 0-6.1 2.5-6.1 5.9 0 3.6 2.8 6.2 6.1 6.2s6.2-2.5 6.2-6.1c0-3.4-3-6-6.2-6zm-.1.6c3 0 3.7 3 3.7 5.6 0 2.4-.7 5.4-3.5 5.4-3 0-3.7-3-3.7-5.5.1-2.4.7-5.5 3.5-5.5z"/><path class="st2" d="M83.5 36.7c-3.1 0-6.1 2.5-6.1 5.9 0 3.6 2.8 6.2 6.1 6.2s6.2-2.5 6.2-6.1c0-3.4-3-6-6.2-6zm-.1.6c3 0 3.7 3 3.7 5.6 0 2.4-.7 5.4-3.5 5.4-3 0-3.7-3-3.7-5.5.1-2.4.7-5.5 3.5-5.5z"/><path class="st3" d="M95.4 42.1c0-1 0-2 .3-2.8.4-1 1.4-1.8 2.5-1.8 2.6 0 2.4 2.7 2.4 4.5v3.4c0 1.8.2 2.4-1.8 2.6v.5c1 0 1.9-.1 2.9-.1.9 0 1.9.1 2.8.1V48c-2-.1-1.7-.9-1.7-2.7v-3.2c0-1 0-2 .3-2.8.4-1 1.4-1.8 2.5-1.8 2.6 0 2.4 2.7 2.4 4.5v3.4c0 1.8.1 2.4-1.8 2.6v.5c.9 0 1.9-.1 2.8-.1.9 0 1.9.1 2.8.1V48c-2-.1-1.7-.9-1.7-2.7v-3.8c0-1.1 0-2.7-.7-3.6-.7-1-1.9-1.3-3-1.3-1.6 0-3 .8-3.9 2.2-.5-1.6-2-2.2-3.5-2.2-1.7 0-2.9.8-3.9 2.2l-.3-2.2c-1.3.2-2.2.7-3.5.8v.5c.8 0 1.5-.1 1.7.9.1.6.1 2.5.1 3.3v3.3c0 1.8.1 2.4-1.8 2.6v.5c1 0 1.9-.1 2.9-.1.9 0 1.8.1 2.8.1V48c-2-.1-1.7-.9-1.7-2.7l.1-3.2zM117.4 42.1c0-1 0-2 .3-2.8.4-1 1.4-1.8 2.5-1.8 2.6 0 2.4 2.7 2.4 4.5v3.4c0 1.8.2 2.4-1.8 2.6v.5c1 0 1.9-.1 2.9-.1.9 0 1.9.1 2.8.1V48c-2-.1-1.7-.9-1.7-2.7v-3.2c0-1 0-2 .3-2.8.4-1 1.4-1.8 2.5-1.8 2.6 0 2.4 2.7 2.4 4.5v3.4c0 1.8.1 2.4-1.8 2.6v.5c.9 0 1.9-.1 2.8-.1.9 0 1.9.1 2.8.1V48c-2-.1-1.7-.9-1.7-2.7v-3.8c0-1.1 0-2.7-.7-3.6-.7-1-1.9-1.3-3-1.3-1.6 0-3 .8-3.9 2.2-.5-1.6-2-2.2-3.5-2.2-1.7 0-2.9.8-3.9 2.2l-.3-2.2c-1.3.2-2.2.7-3.5.8v.5c.8 0 1.5-.1 1.7.9.1.6.1 2.5.1 3.3v3.3c0 1.8.1 2.4-1.8 2.6v.5c1 0 1.9-.1 2.9-.1.9 0 1.8.1 2.8.1V48c-2-.1-1.7-.9-1.7-2.7l.1-3.2zM138.9 36.9c-.6 0-1.3.1-2 .1s-1.4-.1-2.1-.1v.5c2.1.3 1.9.9 1.9 3V45c0 2.4.9 3.8 3.5 3.8 1.7 0 3.3-1 4.3-2.5l.5 2.5 3.6-1v-.6c-.3 0-.7.1-1 .1-.9 0-.9-1.1-.9-1.8v-8.7c-.6.1-1.3.1-2 .1-.7-.1-1.4-.1-2.1-.1v.5c2.1.3 1.9.9 1.9 3v3.6c0 2.1-1.5 4-3.5 4s-2.1-2.2-2.1-3.7v-7.3zM161.8 40.4c0-2.6-1.4-3.7-3.8-3.7-1.8 0-3.2.8-4.1 2.4h-.1l-.3-2.4c-1.3.2-2.2.7-3.5.8v.5c.8 0 1.5-.1 1.7.9.1.6.1 2.5.1 3.3v3.3c0 1.8.1 2.4-1.8 2.6v.5c1 0 2-.1 3-.1.9 0 1.9.1 2.8.1v-.5c-2-.1-1.8-.9-1.8-2.7v-4.2c0-2 1.3-3.6 3.3-3.6 2.4 0 2.4 2.6 2.4 4.5v3.4c0 1.8.1 2.4-1.8 2.6v.5c1 0 2-.1 3-.1.9 0 1.9.1 2.8.1v-.5c-2-.1-1.8-.9-1.8-2.7l-.1-5z"/><path class="st1" d="M165.5 37.5v.5c.5 0 1.6-.1 1.8.6.1.4.1 2.5.1 3v3.8c0 1.8.1 2.4-1.8 2.6v.5c1 0 2-.1 3-.1.9 0 1.9.1 2.7.1V48c-2-.1-1.7-.9-1.8-2.7v-8.6l-4 .8zm2.7-4.2c.7 0 1.3-.6 1.3-1.4 0-.8-.6-1.5-1.4-1.5-.8 0-1.4.6-1.4 1.5.1.9.8 1.4 1.5 1.4z"/><path class="st2" d="M165.5 37.5v.5c.5 0 1.6-.1 1.8.6.1.4.1 2.5.1 3v3.8c0 1.8.1 2.4-1.8 2.6v.5c1 0 2-.1 3-.1.9 0 1.9.1 2.7.1V48c-2-.1-1.7-.9-1.8-2.7v-8.6l-4 .8zm2.7-4.2c.7 0 1.3-.6 1.3-1.4 0-.8-.6-1.5-1.4-1.5-.8 0-1.4.6-1.4 1.5.1.9.8 1.4 1.5 1.4z"/><path class="st3" d="M174.5 37.9v8.2c0 2 1.3 2.8 3.1 2.8 1.2 0 2.5-.4 3-1.7l-.5-.3c-.5.7-.9 1.2-1.8 1.2-1.4 0-1.6-1.3-1.6-2.5v-7.7h2.9v-.7h-2.9v-3.1h-.4c-.5 1.5-1.8 2.6-3.1 3.4v.5l1.3-.1zM185.9 48.4l-1 2.3c-.3.8-.7 1.8-1.1 2.5-.5.8-1.9.8-1.9 2 0 .4.3.8.8.6 1.1 0 1.8-2.1 2.1-2.9l5.3-12.9.3-.8c.4-.9.4-1.7 1.5-1.7V37c-.6 0-1.1.1-1.7.1-.7 0-1.3-.1-2-.1v.5c.5 0 1.4.2 1.4.9s-.5 1.9-.7 2.5l-1.9 4.8-1.6-4.1c-.3-.7-1-2.5-1-3.2 0-.9 1.2-.8 1.6-.9V37c-1 0-1.9.1-2.9.1-.9 0-1.7-.1-2.6-.1v.5c.3 0 .9.3 1.1.6.3.4.6 1 .7 1.5l3.6 8.8zM72.3 9.9c-2.7 0-5.5.1-8.2.1-1.5 0-3-.1-4.6-.1v.6c.8 0 1.9 0 2.2.9.3.7.3 2.7.3 3.6v7.6c0 .9 0 2.9-.3 3.6-.3.9-1.4.9-2.2.9v.6c1.4 0 2.6-.1 3.9-.1 1.3 0 2.6.1 3.9.1v-.6c-.9-.1-2.1.2-2.5-.9-.3-.7-.3-2.7-.3-3.6v-3.4c2.5 0 3.8.1 4.2 2.9h.6c0-1.1-.1-2.2-.1-3.3.1-1.2.1-2.4.1-3.7h-.6c-.2 1.9-.7 3.4-4.2 3.3v-6c.1-1.7 0-1.5 2-1.5 1.2 0 2.7 0 3.8.5 1.1.5 1.4 1.6 1.7 2.8h.6l-.3-4.3z"/><path class="st1" d="M73.4 16.6v.5c.5 0 1.6-.1 1.8.6.1.4.1 2.5.1 3v3.8c0 1.8.1 2.4-1.8 2.6v.5c1 0 2-.1 3-.1.9 0 1.9.1 2.7.1v-.5c-2-.1-1.7-.9-1.8-2.7v-8.6l-4 .8zm2.7-4.2c.7 0 1.3-.6 1.3-1.4 0-.8-.6-1.5-1.4-1.5-.8 0-1.4.6-1.4 1.5.1.9.8 1.4 1.5 1.4z"/><path class="st2" d="M73.4 16.6v.5c.5 0 1.6-.1 1.8.6.1.4.1 2.5.1 3v3.8c0 1.8.1 2.4-1.8 2.6v.5c1 0 2-.1 3-.1.9 0 1.9.1 2.7.1v-.5c-2-.1-1.7-.9-1.8-2.7v-8.6l-4 .8zm2.7-4.2c.7 0 1.3-.6 1.3-1.4 0-.8-.6-1.5-1.4-1.5-.8 0-1.4.6-1.4 1.5.1.9.8 1.4 1.5 1.4z"/><path class="st3" d="M82.6 24.6c0 1.8.1 2.4-1.8 2.6v.5c1 0 2-.1 3-.1s2 .1 2.9.1v-.5c-2.1-.1-1.9-.8-1.9-2.7v-2.7c0-1.2 0-2.6.6-3.7.4-.7 1.2-1.3 2-1.3 1 0 .8 1.4 1.8 1.4.5 0 .9-.5.9-1 0-1-1-1.4-1.8-1.4-1.8 0-3 1.1-3.7 2.7h-.1c0-1-.1-1.9-.3-2.7-1.1.3-2.2.8-3.4.8v.5c.8 0 1.5-.1 1.7.9.2.6.2 2.5.2 3.3l-.1 3.3zM92 27c.8.6 1.8 1 2.8 1 2 0 3.8-1.3 3.8-3.5 0-2.4-1.6-3.1-3.4-4.1-1-.6-2.4-1-2.4-2.4 0-1 .8-1.5 1.6-1.5 1.6 0 2.2 1.4 2.6 2.8h.5l.1-3.4h-.3l-.5.6c-.7-.4-1.7-.7-2.5-.7-1.8 0-3.2 1.4-3.2 3.2 0 2 1.6 2.9 3.1 3.7 1.1.6 2.6 1.2 2.6 2.7 0 1.3-1 1.9-2.1 1.9-1.9 0-2.8-1.7-3.2-3.4l-.5.1.1 3.8h.3l.6-.8zM101.6 17v8.2c0 2 1.3 2.8 3.1 2.8 1.2 0 2.5-.4 3-1.7l-.5-.3c-.5.7-.9 1.2-1.8 1.2-1.4 0-1.6-1.3-1.6-2.5V17h2.9v-.7h-2.9v-3.1h-.4c-.5 1.5-1.8 2.6-3.1 3.4v.5l1.3-.1z"/><path class="st4" d="M9.5.8H41c4.8 0 8.7 3.9 8.7 8.7v59.1c0 4.8-3.9 8.7-8.7 8.7H9.5c-4.8 0-8.7-3.9-8.7-8.7V9.5C.9 4.6 4.7.8 9.5.8z"/><path class="st5" d="M20.4 26.6H38V77h14.6V1.1h-12c-.3 6.1-4.1 14.2-18.1 14.2h-2.1v11.3z"/></svg>