<?xml version="1.0" encoding="UTF-8"?>
<svg xmlns="http://www.w3.org/2000/svg" version="1.1" viewBox="0 0 417.715 353.337">
  <!-- Generator: Adobe Illustrator 30.2.1, SVG Export Plug-In . SVG Version: 2.1.1 Build 1)  -->
  <defs>
    <style>
      .st0 {
        fill: #e0d19e;
      }

      .st1 {
        fill: #1d1c17;
      }

      .st2 {
        fill: #e4e4e2;
      }

      .st3 {
        fill: #d8232a;
      }

      .st4, .st5 {
        stroke: #000;
      }

      .st4, .st5, .st6 {
        fill: #fff;
      }

      .st5 {
        stroke-miterlimit: 10;
      }

      .st7 {
        fill: #006ca8;
      }
    </style>
  </defs>
  <g id="Layer_6">
    <path class="st6" d="M240.848,35.24c.212-1.394.329-2.815.329-4.263,0-16.855-14.852-30.519-33.173-30.519s-33.173,13.664-33.173,30.519c0,2.01.217,3.972.62,5.873-50.274,15.254-86.87,61.958-86.87,117.216,0,67.644,54.837,122.481,122.481,122.481s122.481-54.837,122.481-122.481c0-57.37-39.447-105.521-92.695-118.826Z"/>
  </g>
  <g id="Layer_4">
    <path class="st3" d="M323.649,242.137c5.687.627,10.12-.723,13.3-4.05,2.613-2.733,3.86-5.74,3.74-9.02-.087-2.38-.083-3.947.01-4.7,11.193-9.667,23.533-17.433,37.02-23.3,3.707-1.613,7.887-3.107,12.54-4.48.211-.064.435.055.499.266.029.094.022.195-.019.284-4.16,9.12-7.22,18.953-9.18,29.5-.253,1.367-.507,3.463-.76,6.29-.024.276.144.535.41.63,3.07,1.1,7.76,2.03,11.32,3.39,6.707,2.56,13.13,6.16,19.27,10.8.362.272.436.785.165,1.148-.097.13-.231.228-.385.282-17.68,6.22-33.54,16.62-46.98,29.81-5.7,5.593-10.563,11.547-14.59,17.86-1.373,2.153-3.313,3.11-5.82,2.87-.442-.041-.809-.363-.91-.8-1.18-5.09,3.51-8.27,7.8-12.44,3.367-3.273,4.677-7.137,3.93-11.59-.52-3.02-3.13-5.54-5.73-7.58-9.293-7.267-17.837-15.657-25.63-25.17Z"/>
    <path class="st3" d="M76.289,223.647c-1.953,9.227,1.157,15.3,9.33,18.22,1.787.633,4.637.563,8.55-.21-6.66,8.767-14.277,16.467-22.85,23.1-4.4,3.407-6.91,5.683-7.53,6.83-1.953,3.62-1.857,7.393.29,11.32,2.64,4.83,9.91,8.88,10.84,14.09.22,1.23-.429,2.388-1.48,2.64-2.65.63-4.73-1.29-6.26-3.53-14.23-20.96-37.15-38.97-61.34-47-.363-.118-.558-.511-.435-.877.044-.132.126-.247.235-.333,9.44-7.233,19.803-11.957,31.09-14.17.434-.082.72-.5.638-.934-.005-.026-.011-.051-.018-.076-.413-1.42-.78-3.073-1.1-4.96-1.827-10.913-4.87-20.96-9.13-30.14-.138-.289-.011-.636.284-.774.083-.039.174-.058.266-.056.493.013,1.06.13,1.7.35,17.367,5.94,33.007,14.777,46.92,26.51Z"/>
    <path class="st3" d="M102.489,241.097c15.42,25.56,39.79,43.71,68.2,52.48,6.85,2.11,11.95,3.76,17.1,5.17.827.227,3.233,1.197,7.22,2.91.372.16.728.357,1.06.59,3.387,2.38,6.823,4.09,10.31,5.13.324.092.667.123,1.01.09,3.64-.4,6.147-1.063,7.52-1.99,5.16-3.493,10.787-6.1,16.88-7.82,7.833-2.2,12.797-3.643,14.89-4.33,24.98-8.23,46.55-23.1,61.87-44.23l7.17-10.83c.185-.284.546-.397.86-.27,1.407.573,2.62,1.473,3.64,2.7,7.127,8.5,12.977,14.773,17.55,18.82,6.907,6.127,11.343,10.02,13.31,11.68.387.327.847.873,1.38,1.64.195.281.125.668-.157.863-.047.033-.099.059-.153.077-2.387.787-4.333,2.34-5.84,4.66-6.813,10.487-14.257,19.463-22.33,26.93-24.78,22.93-53.63,38.33-86.56,43.77-2.18.36-11.31,1.38-14.02,1.46-7.707.247-30.53.716-43.44-1.45-26.26-4.6-50.103-15.05-71.53-31.35-14.11-10.73-27.19-23.43-36.32-38.37-1.653-2.7-3.797-4.51-6.43-5.43-.319-.109-.488-.456-.379-.775.003-.008.006-.017.009-.025.453-1.127.917-1.867,1.39-2.22,12.66-9.433,23.617-20.477,32.87-33.13.177-.24.515-.291.755-.114.053.039.099.088.135.144l2.03,3.22Z"/>
    <path class="st7" d="M170.429,257.947l7.33-.41c.419-.027.781.29.808.709.005.074-.001.149-.018.221l-1.35,5.83c-.13.555-.556.993-1.11,1.14-.88.233-1.65.81-2.31,1.73-.209.295-.334.64-.36,1-.27,4.01-.71,7.58,4,7.61,20.1.113,40.607.103,61.52-.03,2.2-.013,3.573-.967,4.12-2.86.026-.079.037-.168.03-.26l-.15-4.47c-.013-.276-.096-.547-.24-.79-.613-1.007-1.557-1.727-2.83-2.16-.335-.113-.589-.393-.67-.74l-1.51-6.51c-.054-.214.075-.432.289-.486.059-.015.121-.016.181-.004l2.62.51c7.367.28,14.45-1.507,21.25-5.36,15.467-8.773,27.503-20.7,36.11-35.78.099-.173.174-.358.22-.55.53-2.34-1.17-2.89-3.18-2.96-6.933-.247-11.447-.53-13.54-.85-.72-.115-1.21-.792-1.094-1.512.016-.102.045-.202.084-.298.087-.213.397-.537.93-.97,21.027-17.007,33.107-26.777,36.24-29.31.065-.052.145-.087.23-.1,1.64-.367,2.587.257,2.84,1.87,4.3,27.233,6.733,42.62,7.3,46.16.04.253.03.453-.03.6-.313.707-1.14,1.026-1.847.713-.108-.048-.21-.11-.303-.183-6.967-5.573-10.483-8.39-10.55-8.45-1.63-1.48-4.17-2.31-5.21.09-12.71,29.37-37.98,51.02-67.97,60.54-9.77,3.1-23.06,5.77-33.07,12.76-.612.427-1.429.427-2.05,0-9.33-6.49-20.29-8.93-31.19-12.17-31.24-9.28-56.73-31.29-69.97-61.18-.767-1.727-2.117-1.953-4.05-.68-1.447.953-5.3,4.007-11.56,9.16-.2.167-.517.26-.95.28-.673.03-1.243-.491-1.274-1.164-.004-.082,0-.165.014-.246,2.233-14.327,4.66-29.75,7.28-46.27.22-1.38,1.123-1.963,2.71-1.75.282.039.547.153.77.33l36.53,29.67c.516.416.597,1.172.181,1.687-.188.233-.455.387-.751.433-2.127.32-7.09.64-14.89.96-1.68.07-2.73,1.81-1.83,3.37,9.727,16.953,23.387,29.72,40.98,38.3,2.6,1.267,6.363,2.21,11.29,2.83Z"/>
  </g>
  <g id="Layer_3">
    <path class="st0" d="M157.779,51.287c.373-.7.853-2.173,1.44-4.42,1.11-4.29,1.91-9.61,4.94-13.58,2.54-3.34,5.963-5.577,10.27-6.71.171-.045.346.057.391.228.01.037.013.074.009.112l-.39,4.26c-.02.178-.074.355-.16.52-.74,1.433-1.923,4.07-3.55,7.91-2.05,4.85-7.05,11.19-12.63,12.12-.163.032-.32-.074-.352-.237-.014-.069-.002-.141.032-.203Z"/>
    <path class="st0" d="M250.999,29.827c-3.347.6-6.33,1.823-8.95,3.67-.139.099-.333.067-.432-.072-.039-.055-.059-.121-.058-.188v-5.87c0-.316.249-.575.56-.58,3.407-.06,6.407.747,9,2.42.158.102.204.312.102.47-.05.078-.131.133-.222.15Z"/>
    <path class="st0" d="M164.599,30.557c-2.547,3-4.3,6.283-5.26,9.85-1.76,6.53-5.21,15.75-12.26,17.47-.205.046-.408-.083-.454-.288-.016-.07-.011-.144.014-.212,1.56-4.28,1.05-12.62,3.51-17.17,2.973-5.5,7.667-8.927,14.08-10.28.205-.049.408.081.454.291.026.12-.005.245-.084.339Z"/>
    <path class="st0" d="M264.449,35.367c-9.49.65-15.9,8.52-25.21,8.4-.249,0-.45-.202-.449-.451,0-.054.01-.108.029-.159l2.97-7.81c.046-.117.125-.221.23-.3,7.52-5.36,15.073-5.533,22.66-.52.21.142.265.428.123.639-.08.118-.21.192-.353.201Z"/>
    <path class="st0" d="M169.719,46.297l4.32-11.35c.103-.268.404-.402.672-.299.158.061.277.195.318.359l2,8.6c.037.151-.018.309-.14.4-2.34,1.74-4.61,2.67-6.81,2.79-.199.015-.37-.137-.384-.341-.004-.054.005-.109.024-.159Z"/>
    <path class="st0" d="M151.179,36.187c-2.227,3.26-3.63,6.72-4.21,10.38-1.06,6.7-3.53,16.25-10.37,18.71-.196.074-.416-.024-.49-.221-.029-.077-.033-.161-.01-.239,1.1-4.43-.28-12.69,1.69-17.49,2.38-5.793,6.697-9.703,12.95-11.73.206-.064.424.05.489.256.035.113.017.236-.049.334Z"/>
    <path class="st0" d="M277.539,42.127c-3.947-.087-7.613.623-11,2.13-6.21,2.76-15.57,5.89-21.36,1.48-.166-.129-.196-.367-.068-.533.046-.059.107-.103.178-.127,4.32-1.49,10.5-7.15,15.61-8.11,6.153-1.16,11.783.333,16.89,4.48.16.144.173.391.03.551-.072.08-.173.126-.28.129Z"/>
    <path class="st0" d="M138.339,43.337c-1.847,3.467-2.857,7.043-3.03,10.73-.33,6.75-1.74,16.47-8.25,19.64-.19.09-.416.009-.506-.18-.031-.065-.043-.138-.034-.21.61-4.51-1.66-12.53-.22-17.5,1.727-5.993,5.577-10.333,11.55-13.02.191-.089.416-.001.502.195.048.111.044.238-.012.345Z"/>
    <path class="st0" d="M289.619,50.327c-3.907-.507-7.623-.19-11.15.95-6.44,2.08-16.07,4.19-21.35-.79-.154-.143-.162-.383-.019-.537.053-.057.123-.097.199-.113,4.45-1.02,11.18-5.98,16.35-6.39,6.233-.5,11.667,1.577,16.3,6.23.145.159.133.406-.027.551-.082.075-.193.111-.303.099Z"/>
    <path class="st0" d="M126.369,51.647c-1.467,3.68-2.08,7.37-1.84,11.07.42,6.79.09,16.67-6.06,20.57-.175.116-.411.069-.527-.105-.046-.069-.068-.152-.063-.235.11-4.57-3.05-12.35-2.16-17.47,1.06-6.187,4.423-10.957,10.09-14.31.186-.109.425-.047.534.139.061.104.07.229.026.341Z"/>
    <path class="st0" d="M300.739,59.937c-3.827-.94-7.553-1.047-11.18-.32-6.63,1.34-16.43,2.35-21.11-3.19-.139-.157-.124-.397.033-.536.06-.053.136-.086.217-.094,4.53-.5,11.78-4.68,16.95-4.5,6.253.213,11.417,2.89,15.49,8.03.127.174.088.418-.086.545-.09.066-.205.089-.314.065Z"/>
    <path class="st0" d="M310.749,70.567c-3.707-1.353-7.407-1.86-11.1-1.52-6.76.61-16.64.57-20.7-5.47-.116-.175-.068-.411.107-.527.063-.042.137-.064.213-.063,4.57-.02,12.24-3.39,17.38-2.66,6.207.887,11.06,4.113,14.56,9.68.104.189.036.426-.153.53-.094.052-.205.063-.307.03Z"/>
    <path class="st0" d="M115.439,61.287c-1.047,3.813-1.247,7.553-.6,11.22,1.17,6.7,1.94,16.57-3.75,21.12-.158.139-.398.123-.536-.035-.055-.063-.088-.142-.094-.225-.39-4.57-4.4-11.95-4.08-17.15.367-6.273,3.187-11.39,8.46-15.35.177-.123.42-.08.543.097.066.094.086.212.057.323Z"/>
    <path class="st0" d="M319.569,82.227c-3.54-1.74-7.163-2.633-10.87-2.68-6.78-.11-16.58-1.19-19.98-7.61-.101-.184-.034-.415.15-.516.07-.038.151-.054.23-.044,4.54.47,12.51-2.08,17.54-.81,6.073,1.533,10.557,5.247,13.45,11.14.093.194.01.427-.184.52-.106.051-.23.051-.336,0Z"/>
    <path class="st0" d="M105.649,72.247c-.627,3.893-.423,7.62.61,11.18,1.88,6.51,3.71,16.2-1.44,21.33-.15.147-.39.145-.537-.004-.053-.054-.089-.122-.103-.196-.89-4.48-5.65-11.36-5.9-16.54-.307-6.253,1.937-11.623,6.73-16.11.164-.139.41-.119.55.045.069.082.102.188.09.295Z"/>
    <path class="st0" d="M326.929,94.907c-3.327-2.133-6.83-3.437-10.51-3.91-6.73-.88-16.36-3.08-19.01-9.85-.083-.193.005-.416.198-.5.076-.033.162-.04.242-.02,4.46.98,12.69-.64,17.55,1.21,5.867,2.213,9.903,6.42,12.11,12.62.067.205-.045.425-.25.492-.111.036-.232.021-.33-.042Z"/>
    <path class="st0" d="M97.009,84.097c-.18,3.933.443,7.61,1.87,11.03,2.61,6.26,5.52,15.67.99,21.35-.13.165-.369.193-.534.062-.059-.047-.103-.11-.126-.182-1.39-4.35-6.9-10.65-7.73-15.77-1.013-6.173.607-11.76,4.86-16.76.15-.155.397-.158.551-.009.075.073.118.174.119.279Z"/>
    <path class="st0" d="M332.909,108.157c-3.06-2.473-6.383-4.143-9.97-5.01-6.57-1.59-15.87-4.81-17.76-11.81-.056-.202.063-.411.266-.467.074-.02.152-.018.224.007,4.32,1.46,12.63.74,17.24,3.09,5.567,2.827,9.107,7.427,10.62,13.8.057.203-.065.411-.273.464-.121.031-.25.003-.347-.074Z"/>
    <path class="st0" d="M89.809,96.977c.253,3.933,1.28,7.52,3.08,10.76,3.28,5.93,7.21,14.97,3.33,21.11-.112.178-.346.231-.524.12-.065-.041-.116-.1-.146-.17-1.85-4.17-8.03-9.82-9.42-14.81-1.693-6.027-.703-11.763,2.97-17.21.123-.177.366-.221.543-.099.099.068.161.179.167.299Z"/>
    <path class="st0" d="M337.479,122.147c-2.793-2.793-5.937-4.817-9.43-6.07-6.39-2.3-15.32-6.51-16.46-13.7-.032-.207.111-.401.318-.433.076-.012.153,0,.222.033,4.15,1.91,12.53,2.09,16.89,4.93,5.253,3.42,8.293,8.393,9.12,14.92.022.214-.133.406-.347.428-.115.012-.23-.028-.313-.109Z"/>
    <path class="st0" d="M84.079,110.367c.673,3.873,2.073,7.323,4.2,10.35,3.89,5.54,8.75,14.09,5.56,20.6-.093.188-.321.265-.509.171-.067-.033-.123-.086-.161-.151-2.29-3.94-9.01-8.89-10.93-13.7-2.32-5.8-1.947-11.597,1.12-17.39.095-.189.325-.26.514-.16.108.057.184.161.206.28Z"/>
    <path class="st0" d="M340.329,136.547c-2.44-3.093-5.317-5.463-8.63-7.11-6.06-3.02-14.42-8.23-14.71-15.48-.009-.21.153-.387.362-.397.077-.003.152.016.218.057,3.89,2.38,12.17,3.53,16.15,6.85,4.807,4,7.24,9.28,7.3,15.84-.005.215-.184.386-.399.381-.113-.003-.219-.054-.291-.141Z"/>
    <path class="st0" d="M79.699,124.377c1.127,3.78,2.927,7.05,5.4,9.81,4.52,5.06,10.37,13.01,7.95,19.87-.072.197-.29.299-.487.228-.069-.025-.129-.069-.173-.128-2.74-3.66-10.02-7.8-12.5-12.37-2.987-5.507-3.293-11.323-.92-17.45.086-.197.316-.288.513-.202.104.045.183.134.217.242Z"/>
    <path class="st0" d="M341.549,151.127c-2.067-3.34-4.647-6.01-7.74-8.01-5.66-3.67-13.35-9.77-12.82-16.98.017-.209.201-.365.41-.347.073.006.142.033.2.077,3.58,2.79,11.65,4.86,15.22,8.6,4.307,4.5,6.12,10,5.44,16.5-.018.21-.206.362-.419.339-.119-.013-.226-.079-.291-.179Z"/>
    <path class="st0" d="M341.389,165.687c-1.72-3.547-4.023-6.483-6.91-8.81-5.28-4.26-12.33-11.15-11.05-18.3.034-.207.23-.347.437-.313.077.013.147.049.203.103,3.29,3.17,11.14,6.07,14.31,10.18,3.84,4.947,5.083,10.63,3.73,17.05-.054.209-.266.334-.475.281-.105-.027-.193-.096-.245-.191Z"/>
    <path class="st0" d="M77.119,138.887c1.513,3.627,3.64,6.673,6.38,9.14,5.01,4.53,11.64,11.77,9.97,18.81-.053.203-.26.325-.463.273-.067-.017-.128-.053-.177-.103-3.1-3.33-10.74-6.65-13.68-10.91-3.54-5.127-4.46-10.847-2.76-17.16.047-.206.253-.331.461-.279.12.03.22.115.269.229Z"/>
    <path class="st0" d="M339.469,180.277c-1.313-3.713-3.27-6.883-5.87-9.51-4.76-4.81-10.99-12.44-8.92-19.39.056-.202.265-.321.467-.265.076.021.143.065.193.125,2.91,3.51,10.37,7.27,13.06,11.69,3.26,5.34,3.86,11.123,1.8,17.35-.076.202-.301.303-.502.228-.105-.04-.188-.122-.228-.228Z"/>
    <path class="st0" d="M88.389,171.057l-2.92,3.25c-8.04-4.333-11.413-11.203-10.12-20.61.02-.192.193-.331.385-.311.11.012.209.075.265.171,2.48,3.953,5.913,7.4,10.3,10.34,1.467.98,3.093,2.517,4.88,4.61.2.236.171.589-.065.789-.017.015-.036.028-.055.041l-2.67,1.72Z"/>
    <path class="st0" d="M334.929,190.497c-.76-3.927-1.477-7.86-2.15-11.8-.727-4.28-3.44-7.43-8.14-9.45-.833-1.28-.933-3-.3-5.16.056-.202.265-.321.467-.265.076.021.143.065.193.125,3.61,4.43,9.28,8.47,11.92,13.43,2.787,5.227,2.693,11.083-.28,17.57-.051.11-.182.158-.292.106-.057-.027-.1-.076-.118-.136l-1.3-4.42Z"/>
    <path class="st0" d="M84.299,176.557l-1.57,7.06c-.073.301-.375.485-.676.413-.12-.029-.227-.097-.304-.193l-3.59-4.58c-1.973-3.487-2.803-7.22-2.49-11.2.018-.237.225-.414.462-.396.134.01.255.083.328.196,1.893,2.893,4.433,5.203,7.62,6.93.318.171.512.512.5.88-.013.293-.107.59-.28.89Z"/>
    <path class="st0" d="M81.089,192.057c-.031.135-.165.219-.299.188-.068-.015-.126-.058-.161-.118-1.793-2.987-2.65-6.28-2.57-9.88,0-.055.046-.099.101-.099.026,0,.05.011.069.029l3.99,3.89c.129.124.182.306.14.48l-1.27,5.51Z"/>
  </g>
  <g id="Layer_2">
    <g>
      <path class="st5" d="M349.407,226.269h6.663v3.075h-2.667v2.914h2.496v2.923h-2.496v3.379h2.933v3.075h-6.929v-15.367Z"/>
      <path class="st5" d="M366.153,233.065h-3.398v-.683c0-.582-.033-.951-.1-1.106s-.233-.233-.498-.233c-.215,0-.376.071-.484.214s-.161.356-.161.641c0,.386.027.669.081.849s.215.378.484.593.821.528,1.656.94c1.114.544,1.845,1.057,2.193,1.538s.522,1.18.522,2.098c0,1.025-.133,1.799-.399,2.321s-.71.924-1.334,1.205-1.375.422-2.254.422c-.974,0-1.808-.152-2.501-.456s-1.169-.715-1.428-1.234-.389-1.304-.389-2.354v-.607h3.398v.797c0,.677.043,1.117.128,1.319s.255.304.508.304c.272,0,.462-.068.569-.204s.161-.422.161-.859c0-.601-.07-.978-.209-1.129-.146-.152-.889-.601-2.231-1.348-1.126-.633-1.813-1.207-2.06-1.723s-.37-1.128-.37-1.837c0-1.006.133-1.748.399-2.226s.717-.846,1.353-1.106,1.375-.389,2.216-.389c.835,0,1.546.106,2.131.318s1.035.492,1.348.84.503.671.569.968.1.762.1,1.395v.731Z"/>
      <path class="st5" d="M372.468,227.361v1.984h1.035v1.993h-1.035v6.739c0,.829.043,1.291.128,1.386s.441.142,1.068.142v2.031h-1.547c-.873,0-1.496-.036-1.87-.109s-.702-.24-.987-.503-.462-.563-.532-.902-.104-1.134-.104-2.387v-6.397h-.826v-1.993h.826v-1.984h3.844Z"/>
      <path class="st5" d="M378.432,238.504v3.132h-2.895v-3.132h2.895Z"/>
      <path class="st5" d="M353.725,257.342v2.62h-8.438l.003-2.193c2.498-4.088,3.983-6.617,4.455-7.588s.709-1.729.709-2.273c0-.418-.073-.729-.215-.935s-.359-.308-.65-.308c-.293,0-.509.114-.652.342s-.214.68-.214,1.357v1.462h-3.436v-.56c0-.861.044-1.539.133-2.036s.307-.986.655-1.466.8-.845,1.357-1.092,1.224-.37,2.003-.37c1.525,0,2.678.378,3.46,1.134s1.172,1.713,1.172,2.871c0,.88-.22,1.81-.66,2.791s-1.735,3.063-3.887,6.245h4.205Z"/>
      <path class="st5" d="M365.213,249.796v5.125c0,1.164-.063,2.012-.19,2.544s-.389,1.028-.788,1.49-.88.794-1.443.997-1.193.304-1.889.304c-.918,0-1.68-.106-2.287-.318s-1.092-.543-1.452-.992-.617-.922-.769-1.419-.228-1.286-.228-2.368v-5.363c0-1.411.122-2.468.365-3.17s.728-1.266,1.452-1.689,1.602-.636,2.634-.636c.842,0,1.595.147,2.259.441s1.161.653,1.49,1.077.552.902.669,1.433.176,1.379.176,2.544ZM361.379,248.505c0-.816-.04-1.327-.119-1.533s-.264-.308-.555-.308c-.285,0-.473.109-.565.327s-.138.723-.138,1.514v7.498c0,.892.043,1.43.128,1.614s.271.275.555.275.471-.108.56-.323.133-.699.133-1.452v-7.612Z"/>
      <path class="st5" d="M373.455,244.595v15.367h-3.835v-8.239c0-1.19-.028-1.905-.085-2.145s-.214-.422-.47-.546-.827-.185-1.713-.185h-.38v-1.791c1.854-.4,3.262-1.22,4.224-2.461h2.259Z"/>
      <path class="st5" d="M381.811,244.595v15.367h-3.835v-8.239c0-1.19-.028-1.905-.085-2.145s-.214-.422-.47-.546-.827-.185-1.713-.185h-.38v-1.791c1.854-.4,3.262-1.22,4.224-2.461h2.259Z"/>
    </g>
    <g>
      <path class="st4" d="M42.246,240.119c1.028,0,1.507-.095,1.865-.167.335-.095.526-.167.98-.167.933,0,2.87,1.842,2.87,4.424,0,1.195-.622,1.984-1.842,1.984-2.08,0-2.056-2.821-3.276-2.821-.933,0-.836,1.291-.836,1.484v7.34c0,2.845,2.199,1.482,2.199,3.156,0,.742-.454,1.793-4.926,1.793-1.219,0-5.69.049-5.69-1.793,0-1.267,1.482-.765,1.961-1.674.239-.502.335-1.935.358-2.533l.192-5.286c.095-2.51-.407-2.486-.742-2.486-1.076,0-1.602,2.821-3.539,2.821-.933,0-1.483-.861-1.483-1.721,0-2.033,1.722-4.686,3.085-4.686.167,0,.43.072.884.167.455.072,1.1.167,2.057.167h5.882Z"/>
      <path class="st4" d="M63.609,253.317c0,2.033,1.171,1.53,1.171,2.463,0,1.386-3.061,1.363-3.945,1.363-.742,0-3.635,0-3.635-1.219,0-.693.67-.67.861-1.889.144-.765.167-1.602.167-2.393,0-1.195-.023-3.442-1.721-3.442-1.459,0-1.411,1.244-1.411,2.319v2.774c0,1.984.956,1.577.956,2.44,0,1.386-2.726,1.41-3.634,1.41-3.42,0-4.208-.716-4.208-1.458,0-.956.933-.526,1.339-2.081.287-1.123.287-4.279.287-5.594,0-1.077-.072-2.177-.095-3.253-.049-1.698-1.483-1.1-1.483-2.223,0-1.912,6.217-2.414,6.241-2.414.716,0,.765.214.765.909l-.144,4.542c-.023.454-.048,1.219.574,1.219.717,0,1.028-2.128,3.706-2.128,4.399,0,4.089,4.137,4.113,4.807l.095,3.849Z"/>
      <path class="st4" d="M71.343,251.38c-.264,0-.646-.072-.646.335,0,1.195,1.555,2.2,2.678,2.2,1.794,0,2.678-1.077,3.18-1.077s.933.742.933,1.197c0,1.84-3.371,3.179-5.524,3.179-4.304,0-6.527-3.109-6.527-6.193,0-3.682,3.132-6.361,6.719-6.361,4.064,0,5.857,3.133,5.857,4.926,0,1.579-.716,1.793-1.482,1.793h-5.189ZM73.422,248.368c0-.861-.526-1.53-1.411-1.53-.789,0-1.434.812-1.434,1.577,0,.863.813.67,1.434.67.645,0,1.411.144,1.411-.716Z"/>
    </g>
  </g>
  <g id="Layer_1">
    <g>
      <path d="M417.619,249.187c-10.09-7.96-21.56-14.5-34.31-17.25-.325-.065-.54-.377-.49-.71,1.9-12.98,5.77-27.26,12.78-38.47.033-.055.042-.121.024-.182-.035-.122-.162-.193-.284-.158-20.587,5.973-39.123,15.863-55.61,29.67l-3.37-20.4c-.227-2.313-.14-3.78.26-4.4,2.367-3.68,3.58-7.517,3.64-11.51.027-1.48.31-2.903.85-4.27,1.507-3.82,2.023-7.797,1.55-11.93-.073-.646-.008-1.301.19-1.92,1.373-4.26,1.567-8.417.58-12.47-.211-.897-.235-1.827-.07-2.73.853-4.613.53-8.793-.97-12.54-.289-.709-.395-1.479-.31-2.24.487-4.393-.223-8.397-2.13-12.01-.446-.853-.673-1.809-.66-2.78.06-4.12-1.09-7.91-3.45-11.37-.387-.564-.628-1.214-.7-1.89-.493-4.62-2.187-8.6-5.08-11.94-.445-.505-.749-1.119-.88-1.78-.78-3.947-2.58-7.337-5.4-10.17-.947-.953-1.653-2.063-2.12-3.33-1.413-3.847-3.843-7.097-7.29-9.75-.427-.335-.77-.763-1-1.25-1.72-3.673-4.273-6.727-7.66-9.16-1.22-.88-2.3-1.953-3.24-3.22-2.613-3.527-5.73-6.133-9.35-7.82-.584-.269-1.093-.678-1.48-1.19-2.6-3.413-5.883-5.813-9.85-7.2-.839-.297-1.616-.748-2.29-1.33-3.23-2.81-5.49-4.65-10.38-5.85-.61-.146-1.193-.382-1.73-.7-.013-.007-1.017-.7-3.01-2.08-2.5-1.727-5.513-2.76-9.04-3.1-.655-.059-1.283-.286-1.82-.66-3.453-2.353-7.31-3.58-11.57-3.68-.327-.004-.614-.223-.71-.54-3.393-11.447-10.363-19.01-20.91-22.69-10.473-3.647-20.563-2.733-30.27,2.74-7.15,4.03-12.93,11.43-14.72,19.49-.073.349-.355.619-.71.68-2.647.46-5.093,1.46-7.34,3-.302.203-.65.324-1.01.35-4.747.387-8.763,1.887-12.05,4.5-.548.436-1.177.759-1.85.95-4.027,1.127-6.533,2.073-7.52,2.84-1.66,1.293-3.09,2.41-4.29,3.35-.616.483-1.308.865-2.05,1.13-3.993,1.407-7.273,3.673-9.84,6.8-.455.547-1.021.987-1.66,1.29-5.05,2.38-6.43,4.22-9.9,8.3-.457.544-.993,1.019-1.59,1.41-4.49,2.95-5.78,4.88-8.55,9.22-.357.562-.811,1.057-1.34,1.46-3.6,2.74-6.217,6.21-7.85,10.41-.237.612-.606,1.166-1.08,1.62-3.293,3.167-5.51,6.883-6.65,11.15-.191.731-.546,1.411-1.04,1.99-2.933,3.453-4.637,7.243-5.11,11.37-.099.828-.393,1.627-.86,2.33-2.287,3.44-3.477,6.453-3.57,9.04-.08,2.353-.49,4.267-1.23,5.74-2.02,4.01-2.55,7.4-2.1,12.03.052.57-.044,1.142-.28,1.66-2.06,4.48-1.91,7.98-1.22,13.04.099.691.041,1.398-.17,2.07-1.207,3.933-1.083,8.04.37,12.32.118.348.149.719.09,1.08-.627,3.907-.693,6.623-.2,8.15.773,2.347,1.447,4.693,2.02,7.04-.293,3.893.22,7.133,1.54,9.72,1.76,3.44,2.323,6.727,1.69,9.86-.7,3.487-1.753,10.413-3.16,20.78-5.393-4.2-8.947-6.88-10.66-8.04-13.52-9.173-28.163-16.06-43.93-20.66-.027-.007-.055-.003-.079.012-.047.029-.061.091-.031.138,6.573,11.807,10.783,24.68,12.63,38.62.036.298-.151.578-.44.66-7.893,2.18-13.78,4.337-17.66,6.47-5.6,3.073-11.117,6.673-16.55,10.8-.046.036-.08.085-.097.141-.045.148.039.304.187.349,25.5,7.94,48.77,24.42,63.68,45.48,2.633,3.72,4.547,5.837,5.74,6.35,4.89,2.11,8.5-1.85,11.08-5.5.026-.037.055-.07.088-.1.242-.218.619-.195.842.05,27.16,30.8,66.27,53.19,107.56,56.63,10.013.827,20.08,1.043,30.2.65,45.28-1.77,86.8-23.58,116.67-57.21.01-.011.021-.022.032-.033.228-.217.585-.212.798.013,3.42,3.46,5.75,7.71,10.86,5.65,1.28-.513,3.357-2.76,6.23-6.74,15.03-20.83,38.15-37.65,63.56-45.21.05-.013.094-.042.126-.082.082-.105.061-.261-.046-.348ZM336.639,194.947c-.027.057-.076.099-.136.117-.116.035-.239-.031-.274-.148l-1.3-4.42c-.76-3.927-1.477-7.86-2.15-11.8-.727-4.28-3.44-7.43-8.14-9.45-.833-1.28-.933-3-.3-5.16.021-.076.065-.143.125-.193.162-.133.402-.11.535.053,3.61,4.43,9.28,8.47,11.92,13.43,2.787,5.227,2.693,11.083-.28,17.57ZM274.299,222.607c.5.37,1.92.89,2.74,1.32.041.021.08.047.114.078.222.199.238.545.036.772-7.92,8.7-24.29,23.16-37.34,20.69l-3.4-4.25c-.207-.253-.32-.571-.32-.9l-.01-93.8-.01-4.41-.18-65.85c0-.326.204-.617.51-.73,6.07-2.29,5.94-9.28.07-11.17-.229-.076-.38-.3-.37-.55.02-.233.01-.39-.03-.47-1.747-3.427-4.32-5.88-7.72-7.36-.056-.026-.104-.066-.139-.117-.106-.155-.066-.367.089-.472,3.567-2.46,6.277-5.153,8.13-8.08.014-.022.028-.044.043-.066.908-1.36,2.742-1.728,4.097-.824,3.1,2.053,5.813,3.193,8.14,3.42,1.54.153,2.49.26,2.85.32.465.085.896.292,1.25.6,3.96,3.41,5.97,3.55,10.11,4.68.415.111.784.353,1.05.69,2.233,2.86,5.33,4.743,9.29,5.65.341.079.655.244.91.48.89.82,1.41,2.16,2.36,3.07,1.807,1.72,4.057,3.13,6.75,4.23.534.212.969.615,1.22,1.13,1.547,3.107,4.013,5.537,7.4,7.29.456.235.835.6,1.09,1.05,2.02,3.65,3.71,6.62,7.24,8.84.528.335.913.848,1.08,1.44,1.013,3.547,2.897,6.497,5.65,8.85.641.55,1.075,1.301,1.23,2.13.713,3.72,2.303,6.767,4.77,9.14.454.434.713,1.036.72,1.67.047,3.727,1.293,7.057,3.74,9.99.391.474.578,1.085.52,1.7-.367,3.613.52,7.123,2.66,10.53.27.431.366.946.27,1.44-.707,3.78-.167,7.497,1.62,11.15.161.321.189.69.08,1.03-1.2,3.8-1.103,7.6.29,11.4.154.435.125.915-.08,1.33-1.107,2.207-1.487,4.827-1.14,7.86-5.007-.093-9.427,1.413-13.26,4.52-19.733,15.967-30.757,24.853-33.07,26.66-3.127,2.433-5.027,4.47-5.7,6.11-3.027,7.387-1.477,13.317,4.65,17.79ZM262.029,252.617c15.467-8.773,27.503-20.7,36.11-35.78.099-.172.174-.358.22-.55.53-2.34-1.17-2.89-3.18-2.96-6.933-.247-11.447-.53-13.54-.85-.102-.016-.202-.045-.298-.084-.673-.28-.992-1.052-.712-1.726.087-.213.397-.537.93-.97,21.027-17.007,33.107-26.777,36.24-29.31.065-.052.145-.087.23-.1,1.64-.367,2.587.257,2.84,1.87,4.3,27.233,6.733,42.62,7.3,46.16.04.253.03.453-.03.6-.048.108-.11.21-.183.303-.48.606-1.361.707-1.967.227-6.967-5.573-10.483-8.39-10.55-8.45-1.63-1.48-4.17-2.31-5.21.09-12.71,29.37-37.98,51.02-67.97,60.54-9.77,3.1-23.06,5.77-33.07,12.76-.612.427-1.429.427-2.05,0-9.33-6.49-20.29-8.93-31.19-12.17-31.24-9.28-56.73-31.29-69.97-61.18-.767-1.727-2.117-1.953-4.05-.68-1.447.953-5.3,4.007-11.56,9.16-.2.167-.517.26-.95.28-.082.004-.165,0-.246-.014-.665-.106-1.119-.731-1.014-1.396,2.233-14.327,4.66-29.75,7.28-46.27.22-1.38,1.123-1.963,2.71-1.75.281.039.547.153.77.33l36.53,29.67c.233.188.387.455.433.751.101.655-.348,1.268-1.003,1.369-2.127.32-7.09.64-14.89.96-1.68.07-2.73,1.81-1.83,3.37,9.727,16.953,23.387,29.72,40.98,38.3,2.6,1.267,6.363,2.21,11.29,2.83l7.33-.41c.074-.005.149.001.221.018.409.095.664.503.569.912l-1.35,5.83c-.13.555-.556.993-1.11,1.14-.88.233-1.65.81-2.31,1.73-.209.295-.334.64-.36,1-.27,4.01-.71,7.58,4,7.61,20.1.113,40.607.103,61.52-.03,2.2-.013,3.573-.967,4.12-2.86.026-.079.037-.168.03-.26l-.15-4.47c-.013-.276-.096-.547-.24-.79-.613-1.007-1.557-1.727-2.83-2.16-.335-.113-.589-.393-.67-.74l-1.51-6.51c-.015-.059-.016-.121-.004-.181.045-.216.258-.355.474-.309l2.62.51c7.367.28,14.45-1.507,21.25-5.36ZM169.916,257.179c.026-.037.065-.065.113-.072-.046.007-.086.034-.113.072ZM169.888,257.304s-.003-.003-.003-.004c-.003-.022.01-.038.015-.058-.005.021-.016.042-.012.063ZM177.229,266.117h61.76c1.568,0,2.84,1.271,2.84,2.84v3.08c0,1.568-1.272,2.84-2.84,2.84h-61.76c-1.568,0-2.84-1.272-2.84-2.84v-3.08c0-1.568,1.271-2.84,2.84-2.84ZM238.239,264.397c.009.041.014.083.015.125.003.32-.254.582-.575.585h-59.07c-.045,0-.091-.005-.135-.015-.312-.072-.507-.383-.435-.695l2.73-11.74c.06-.261.292-.448.56-.45h53.62c.268.002.5.189.56.45l2.73,11.74ZM235.169,251.207h-54.04c-1.425,0-2.58-1.155-2.58-2.58v-3.66c0-1.425,1.155-2.58,2.58-2.58h54.04c1.425,0,2.58,1.155,2.58,2.58v3.66c0,1.425-1.155,2.58-2.58,2.58ZM172.364,246.853c.003.006.011.006.013.012.008.021-.002.041-.001.062-.002-.026-.002-.051-.012-.074ZM170.729,245.707c-12.23-2.54-23.33-11.76-31.88-21.23-.024-.026-.042-.057-.055-.09-.054-.145.02-.306.165-.36,5.513-2.18,8.533-5.977,9.06-11.39.473-4.86-1.133-8.813-4.82-11.86-11.2-9.247-23.667-19.36-37.4-30.34-2.327-1.86-5.47-2.713-9.43-2.56.067-2.747-.333-5.433-1.2-8.06-.241-.729-.251-1.511-.03-2.24,1.06-3.507,1.123-6.967.19-10.38-.161-.587-.108-1.212.15-1.76,1.68-3.553,2.127-7.253,1.34-11.1-.07-.346.002-.703.2-.99,2.227-3.187,3.153-6.833,2.78-10.94-.038-.486.12-.969.44-1.34,2.393-2.767,3.677-6.05,3.85-9.85.026-.55.234-1.075.59-1.49,3.51-4.1,3.8-5.98,5.12-10.24.176-.567.521-1.072.99-1.45,2.767-2.247,4.687-5.223,5.76-8.93.168-.581.541-1.082,1.05-1.41,3.313-2.1,5.707-5.02,7.18-8.76.134-.353.396-.64.73-.8,3.5-1.707,6.173-4.257,8.02-7.65.309-.573.817-1.014,1.43-1.24,3.62-1.353,6.457-3.583,8.51-6.69.274-.418.663-.748,1.12-.95.12-.053.88-.257,2.28-.61,2.74-.69,5.25-2.87,7.18-5.08.347-.392.833-.639,1.36-.69,3.74-.367,7.083-1.997,10.03-4.89.253-.247.582-.408.94-.46,1.43-.21,2.89.09,4.38-.35,2.267-.667,4.63-1.873,7.09-3.62.26-.184.613-.167.86.04.16.14,1.153,1.42,2.98,3.84,1.1,1.46,3.163,3.323,6.19,5.59.057.043.098.104.117.173.05.175-.052.358-.227.407-1.687.453-3.69,2.1-6.01,4.94-1.06,1.293-1.607,2.223-1.64,2.79-.019.295-.195.556-.46.68-2.187,1.06-3.43,2.067-3.73,3.02-1.3,4.153,0,6.86,3.9,8.12.186.061.311.235.31.43v164.72c0,.434-.205.839-.55,1.09-.953.707-1.633,1.543-2.04,2.51-.198.478-.585.854-1.07,1.04-1.847.72-3.763.857-5.75.41ZM170.838,247.383c-.007.016-.018.029-.023.045,0,0,0-.002,0-.002.005-.016.016-.028.023-.043ZM235.019,87.337c0,.155-.125.28-.28.28h-53.24c-.155,0-.28-.125-.28-.28v-11.2h0c0-.155.125-.28.28-.28h53.24c.155,0,.28.125.28.28v11.2ZM235.209,89.507v15.07c.002.213-.103.412-.28.53l-52.97,35.64c-.103.068-.223.105-.346.106-.348.002-.632-.278-.634-.626v-15.07c-.002-.213.103-.412.28-.53l52.97-35.64c.103-.068.223-.105.346-.106.348-.002.632.278.634.626ZM181.319,88.517h22.92c.112-.003.218.053.279.148.095.149.051.347-.099.442l-22.92,15.41c-.052.035-.113.055-.175.055-.177.003-.322-.139-.325-.315v-15.42c0-.177.143-.32.32-.32ZM181.419,105.457l2.29-1.49,14.86-9.99,7.2-5.14,27.03-.17c.05.001.097.026.127.067.051.072.035.172-.037.223l-25.25,17.01-7.4,4.95-15.5,10.48-3.23,2.25c-.06.043-.132.066-.205.065-.188-.003-.338-.157-.335-.345v-17.06c0-.344.169-.662.45-.85ZM181.419,141.987l1.98-1.22,12.63-8.48,8.42-5.74,30.21-20.31c.063-.042.138-.064.213-.063.21.002.378.173.377.383v16.71c0,.341-.163.663-.44.87l-1.17.87-20.2,13.51-9.85,6.66-7.05,4.74-13.56,9.16c-.48.433-.97.72-1.47.86-.038.011-.077.017-.117.017-.237.002-.431-.19-.433-.427v-16.72c0-.335.174-.646.46-.82ZM235.191,142.355c-.022-.017-.045-.032-.064-.053.019.021.042.036.064.053ZM235.083,142.237c-.016-.026-.033-.051-.044-.081.011.03.027.055.044.081ZM181.939,160.647l31.83-21.31,20.36-13.74.24-.18c.061-.045.134-.07.21-.07.193,0,.35.157.35.35l.07,15.68-46.74,31.52-6.66,4.67c-.07.048-.154.074-.239.073-.226-.001-.405-.182-.401-.403v-14.75c0-.738.368-1.428.98-1.84ZM180.969,229.467c0-.237.193-.43.43-.43h53.44c.237,0,.43.193.43.43v11.66c0,.237-.193.43-.43.43h-53.44c-.237,0-.43-.193-.43-.43v-11.66ZM187.729,193.417l47.35-31.31-.01,15.29c0,.443-.217.856-.58,1.1l-52.66,35.43c-.083.055-.18.084-.279.084-.27-.002-.485-.218-.481-.484v-14.84c0-.376.183-.727.49-.94l6.17-4.33ZM181.479,215.047l2.08-1.32,8.36-5.68,10.9-7.34,31.88-21.39c.059-.041.13-.063.203-.063.193.002.349.159.347.353v16.64c0,.401-.199.775-.53,1l-31.82,21.42-11.22,7.47c-2.59,2.57-5.72,1.87-8.83,1.83-.5.093-.927.11-1.28.05-.317-.053-.549-.324-.55-.64v-11.5c0-.336.174-.649.46-.83ZM216.369,227.547l.62.1,17.76-11.93c.055-.037.119-.057.185-.055.177.003.318.149.315.325v11.52c0,.265-.215.48-.48.48l-17.86.05-24.73-.18c-.15,0-.291-.076-.372-.202-.132-.204-.072-.477.132-.608l42.68-28.72c.045-.029.098-.045.152-.046.154-.003.279.116.278.266v15.32c0,.475-.236.918-.63,1.18l-18.12,12.19c-.04.027-.068.07-.074.118-.013.093.051.179.144.192ZM235.219,159.807c-.02.713-.457,1.2-1.31,1.46l-29.24,19.7-8.54,5.7-9,6.08-3.12,2.12-2.44,1.57c-.063.044-.139.066-.215.065-.204-.003-.368-.171-.365-.375v-16.74c0-.337.169-.649.45-.83l1.27-.8,6.23-4.22,8.38-5.55,7.36-4.98,30.13-20.22c.029-.019.062-.029.096-.031.111-.005.207.085.214.201l.12,3.56c.04,6.54.033,10.97-.02,13.29ZM235.259,142.401c.023.011.049.016.074.023-.026-.007-.051-.012-.074-.023ZM235.443,142.447c-.008,0-.014-.004-.021-.004.049.002.099,0,.148-.015-.041.013-.084.02-.127.02ZM235.191,74.974l-54.06-.094c-2.69-.005-4.866-2.189-4.862-4.879v-.18c.005-2.69,2.189-4.866,4.879-4.862l54.06.094c2.69.005,4.866,2.189,4.862,4.878v.18c-.005,2.69-2.189,4.866-4.879,4.861ZM234.509,63.987c-.807.06-9.6.09-26.38.09-16.773.007-25.563-.023-26.37-.09-.197-.013-.382-.096-.522-.235-.327-.322-.33-.853-.008-1.185l4.23-4.32c.299-.305.635-.571,1-.79,1.307-.833,3.433-1.257,6.38-1.27,4.013-.013,9.11-.02,15.29-.02s11.287.007,15.3.02c2.947.013,5.073.437,6.38,1.27.365.219.701.485,1,.79l4.23,4.32c.139.143.223.33.237.529.034.462-.309.861-.767.891ZM340.199,180.277c-.04.105-.122.188-.228.228-.202.076-.427-.026-.502-.228-1.313-3.713-3.27-6.883-5.87-9.51-4.76-4.81-10.99-12.44-8.92-19.39.021-.076.065-.143.125-.193.162-.133.402-.11.535.053,2.91,3.51,10.37,7.27,13.06,11.69,3.26,5.34,3.86,11.123,1.8,17.35ZM342.109,165.597c-.027.105-.096.193-.191.245-.189.103-.426.034-.529-.155-1.72-3.547-4.023-6.483-6.91-8.81-5.28-4.26-12.33-11.15-11.05-18.3.013-.077.049-.147.103-.203.146-.15.387-.154.537-.007,3.29,3.17,11.14,6.07,14.31,10.18,3.84,4.947,5.083,10.63,3.73,17.05ZM342.259,150.967c-.01.117-.074.222-.174.284-.179.111-.419.056-.536-.124-2.067-3.34-4.647-6.01-7.74-8.01-5.66-3.67-13.35-9.77-12.82-16.98.006-.073.033-.142.077-.2.128-.167.366-.198.533-.07,3.58,2.79,11.65,4.86,15.22,8.6,4.307,4.5,6.12,10,5.44,16.5ZM341.019,136.307c-.003.113-.054.219-.141.291-.166.138-.412.115-.549-.051-2.44-3.093-5.317-5.463-8.63-7.11-6.06-3.02-14.42-8.23-14.71-15.48-.003-.077.016-.152.057-.218.111-.178.345-.233.523-.122,3.89,2.38,12.17,3.53,16.15,6.85,4.807,4,7.24,9.28,7.3,15.84ZM338.139,121.827c.012.115-.028.23-.109.313-.15.154-.397.158-.552.007-2.793-2.793-5.937-4.817-9.43-6.07-6.39-2.3-15.32-6.51-16.46-13.7-.012-.076,0-.153.033-.222.091-.189.318-.269.507-.178,4.15,1.91,12.53,2.09,16.89,4.93,5.253,3.42,8.293,8.393,9.12,14.92ZM333.529,107.767c.033.118.006.244-.072.338-.135.162-.38.185-.548.052-3.06-2.473-6.383-4.143-9.97-5.01-6.57-1.59-15.87-4.81-17.76-11.81-.02-.074-.018-.152.007-.224.068-.198.284-.304.483-.236,4.32,1.46,12.63.74,17.24,3.09,5.567,2.827,9.107,7.427,10.62,13.8ZM327.509,94.457c.036.111.021.232-.042.33-.115.182-.357.235-.538.12-3.327-2.133-6.83-3.437-10.51-3.91-6.73-.88-16.36-3.08-19.01-9.85-.033-.076-.04-.162-.02-.242.05-.204.256-.328.46-.278,4.46.98,12.69-.64,17.55,1.21,5.867,2.213,9.903,6.42,12.11,12.62ZM320.089,81.707c.051.106.051.23,0,.336-.093.194-.326.277-.52.184-3.54-1.74-7.163-2.633-10.87-2.68-6.78-.11-16.58-1.19-19.98-7.61-.039-.07-.054-.151-.044-.23.026-.208.216-.356.424-.33,4.54.47,12.51-2.08,17.54-.81,6.073,1.533,10.557,5.247,13.45,11.14ZM311.209,70.007c.052.094.063.205.03.307-.065.205-.285.318-.49.253-3.707-1.353-7.407-1.86-11.1-1.52-6.76.61-16.64.57-20.7-5.47-.042-.063-.064-.138-.063-.213.002-.21.173-.378.383-.377,4.57-.02,12.24-3.39,17.38-2.66,6.207.887,11.06,4.113,14.56,9.68ZM301.139,59.327c.066.09.089.205.065.314-.047.21-.255.343-.465.296-3.827-.94-7.553-1.047-11.18-.32-6.63,1.34-16.43,2.35-21.11-3.19-.053-.06-.086-.136-.094-.217-.019-.209.135-.394.344-.413,4.53-.5,11.78-4.68,16.95-4.5,6.253.213,11.417,2.89,15.49,8.03ZM289.949,49.677c.075.082.111.193.099.303-.023.214-.215.369-.429.347-3.907-.507-7.623-.19-11.15.95-6.44,2.08-16.07,4.19-21.35-.79-.057-.053-.097-.123-.113-.199-.044-.205.088-.407.293-.451,4.45-1.02,11.18-5.98,16.35-6.39,6.233-.5,11.667,1.577,16.3,6.23ZM277.789,41.447c.08.071.126.173.129.28.006.215-.164.395-.379.4-3.947-.087-7.613.623-11,2.13-6.21,2.76-15.57,5.89-21.36,1.48-.059-.046-.103-.107-.127-.178-.068-.199.038-.415.237-.482,4.32-1.49,10.5-7.15,15.61-8.11,6.153-1.16,11.783.333,16.89,4.48ZM241.559,27.367c0-.316.249-.575.56-.58,3.407-.06,6.407.747,9,2.42.078.05.133.131.15.222.035.184-.086.362-.27.398-3.347.6-6.33,1.823-8.95,3.67-.055.039-.121.059-.188.058-.171-.004-.306-.146-.302-.318v-5.87ZM241.789,35.347c.046-.117.125-.221.23-.3,7.52-5.36,15.073-5.533,22.66-.52.118.08.193.21.201.353.015.254-.178.472-.431.487-9.49.65-15.9,8.52-25.21,8.4-.054,0-.108-.01-.159-.029-.232-.088-.349-.348-.261-.581l2.97-7.81ZM194.329,3.657c4.247-1.84,8.867-2.757,13.86-2.75,4.987.007,9.603.937,13.85,2.79,21.81,9.51,25.9,37.73,5.16,51.43-.267.169-.576.259-.89.26-6.5,0-12.567-.003-18.2-.01-5.633-.007-11.7-.02-18.2-.04-.315-.004-.624-.098-.89-.27-20.7-13.75-16.53-41.96,5.31-51.41ZM175.029,35.007l2,8.6c.037.151-.018.309-.14.4-2.34,1.74-4.61,2.67-6.81,2.79-.053.004-.106-.004-.155-.023-.185-.073-.277-.286-.205-.477l4.32-11.35c.061-.158.195-.277.359-.318.279-.07.561.1.631.378ZM174.429,26.577c.036-.01.074-.013.112-.009.176.017.305.173.288.349l-.39,4.26c-.02.178-.074.355-.16.52-.74,1.433-1.923,4.07-3.55,7.91-2.05,4.85-7.05,11.19-12.63,12.12-.069.014-.141.002-.203-.032-.145-.08-.197-.263-.117-.408.373-.7.853-2.173,1.44-4.42,1.11-4.29,1.91-9.61,4.94-13.58,2.54-3.34,5.963-5.577,10.27-6.71ZM164.229,29.927c.117-.028.24.002.331.081.159.139.177.384.039.549-2.547,3-4.3,6.283-5.26,9.85-1.76,6.53-5.21,15.75-12.26,17.47-.07.016-.144.011-.212-.014-.197-.071-.3-.289-.228-.486,1.56-4.28,1.05-12.62,3.51-17.17,2.973-5.5,7.667-8.927,14.08-10.28ZM150.739,35.597c.113-.035.236-.017.334.049.179.12.226.363.106.541-2.227,3.26-3.63,6.72-4.21,10.38-1.06,6.7-3.53,16.25-10.37,18.71-.077.029-.161.033-.239.01-.202-.058-.318-.268-.261-.47,1.1-4.43-.28-12.69,1.69-17.49,2.38-5.793,6.697-9.703,12.95-11.73ZM137.849,42.797c.108-.05.232-.045.336.012.185.102.254.338.154.528-1.847,3.467-2.857,7.043-3.03,10.73-.33,6.75-1.74,16.47-8.25,19.64-.065.031-.138.043-.21.034-.208-.026-.356-.216-.33-.424.61-4.51-1.66-12.53-.22-17.5,1.727-5.993,5.577-10.333,11.55-13.02ZM115.719,65.477c1.06-6.187,4.423-10.957,10.09-14.31.104-.061.229-.07.341-.026.2.079.298.306.219.506-1.467,3.68-2.08,7.37-1.84,11.07.42,6.79.09,16.67-6.06,20.57-.069.046-.152.068-.234.063-.209-.013-.369-.194-.355-.403.11-4.57-3.05-12.35-2.16-17.47ZM106.379,76.217c.367-6.273,3.187-11.39,8.46-15.35.094-.066.212-.086.323-.057.208.055.332.269.277.477-1.047,3.813-1.247,7.553-.6,11.22,1.17,6.7,1.94,16.57-3.75,21.12-.063.055-.142.088-.225.094-.209.014-.391-.144-.405-.354-.39-4.57-4.4-11.95-4.08-17.15ZM105.009,71.907c.082-.069.188-.102.295-.09.214.024.369.216.345.43-.627,3.893-.423,7.62.61,11.18,1.88,6.51,3.71,16.2-1.44,21.33-.054.053-.122.089-.196.103-.206.039-.405-.096-.444-.303-.89-4.48-5.65-11.36-5.9-16.54-.307-6.253,1.937-11.623,6.73-16.11ZM96.339,83.827c.073-.075.173-.118.279-.119.215,0,.391.173.391.388-.18,3.933.443,7.61,1.87,11.03,2.61,6.26,5.52,15.67.99,21.35-.047.059-.11.103-.182.126-.2.064-.414-.046-.478-.246-1.39-4.35-6.9-10.65-7.73-15.77-1.013-6.173.607-11.76,4.86-16.76ZM89.099,96.777c.068-.099.179-.161.299-.167.215-.012.399.152.411.367.253,3.933,1.28,7.52,3.08,10.76,3.28,5.93,7.21,14.97,3.33,21.11-.041.065-.1.116-.17.146-.192.084-.416-.004-.5-.196-1.85-4.17-8.03-9.82-9.42-14.81-1.693-6.027-.703-11.763,2.97-17.21ZM83.359,110.247c.054-.107.155-.181.273-.2.208-.034.408.11.447.32.673,3.873,2.073,7.323,4.2,10.35,3.89,5.54,8.75,14.09,5.56,20.6-.033.067-.086.123-.151.161-.182.104-.414.041-.519-.141-2.29-3.94-9.01-8.89-10.93-13.7-2.32-5.8-1.947-11.597,1.12-17.39ZM78.969,124.337c.045-.104.134-.183.242-.217.206-.064.424.051.488.257,1.127,3.78,2.927,7.05,5.4,9.81,4.52,5.06,10.37,13.01,7.95,19.87-.025.069-.069.129-.128.173-.167.127-.406.094-.532-.073-2.74-3.66-10.02-7.8-12.5-12.37-2.987-5.507-3.293-11.323-.92-17.45ZM76.389,138.937c.027-.119.11-.216.223-.262.195-.08.422.016.507.212,1.513,3.627,3.64,6.673,6.38,9.14,5.01,4.53,11.64,11.77,9.97,18.81-.017.067-.053.128-.103.177-.15.146-.391.143-.537-.007-3.1-3.33-10.74-6.65-13.68-10.91-3.54-5.127-4.46-10.847-2.76-17.16ZM75.349,153.697c.012-.11.075-.209.171-.265.167-.098.381-.042.479.125,2.48,3.953,5.913,7.4,10.3,10.34,1.467.98,3.093,2.517,4.88,4.61.015.017.028.036.041.055.17.259.098.606-.161.775l-2.67,1.72-2.92,3.25c-8.04-4.333-11.413-11.203-10.12-20.61ZM75.669,168.057c.01-.134.083-.255.196-.328.2-.129.466-.071.594.128,1.893,2.893,4.433,5.203,7.62,6.93.318.171.512.512.5.88-.013.293-.107.59-.28.89l-1.57,7.06c-.029.12-.097.227-.193.304-.241.194-.593.157-.787-.084l-3.59-4.58c-1.973-3.487-2.803-7.22-2.49-11.2ZM78.059,182.247c0-.026.011-.05.029-.069.039-.039.102-.04.141-.001l3.99,3.89c.129.123.182.306.14.48l-1.27,5.51c-.015.068-.058.126-.118.161-.119.069-.272.029-.342-.091-1.793-2.987-2.65-6.28-2.57-9.88ZM78.239,227.317c3.793-23.633,6.24-39.067,7.34-46.3.6-3.92,2.593-6.967,5.98-9.14,1.3-.773,2.763-1.26,4.39-1.46,3.467-.36,6.297.35,8.49,2.13,7.787,6.32,18.927,15.35,33.42,27.09,3.07,2.49,6.49,4.98,7.39,8.42,1.91,7.38-3.03,13.5-10.3,14.25-.151.016-.294.079-.408.18-.302.267-.33.729-.062,1.03,9.33,10.47,22.57,22.64,36.19,24.59,2.26.44,4.38.263,6.36-.53.027-.011.054-.019.082-.026.296-.067.591.119.658.416.027.12.01.413-.05.88-.16,1.24.86,2.31,1.94,2.91.263.151.396.455.33.75l-.75,3.24c-.08.32-.326.57-.64.65-2.487.633-5.043.82-7.67.56-6.04-.767-11.533-2.587-16.48-5.46-14.82-8.593-26.583-20.283-35.29-35.07-.017-.029-.033-.058-.047-.089-.28-.582-.035-1.281.547-1.561.28-.133.787-.227,1.52-.28,5.073-.373,9.503-.643,13.29-.81,1.403-.062,2.526-1.124,2.59-2.45.027-.693-.29-1.313-.95-1.86-4.247-3.46-16.443-13.353-36.59-29.68-1.77-1.44-3.86-.7-5.03,1.26-.119.191-.197.409-.23.64-1.293,8.407-3.76,23.94-7.4,46.6-.38,2.36,2.23,3.54,4.08,2.13,4.487-3.427,8.393-6.493,11.72-9.2.109-.089.23-.162.359-.218.776-.335,1.676.022,2.011.798,12.93,30.3,39.68,52.59,71.19,61.77,12.49,3.64,21.49,5.8,30.98,12.22.562.38,1.298.38,1.86,0,5.82-3.9,12.17-6.813,19.05-8.74,5.967-1.68,10.85-3.117,14.65-4.31,30.34-9.53,55.91-31.53,68.53-60.93.056-.13.131-.252.221-.362.532-.65,1.485-.747,2.13-.218,2.44,2,6.297,5.037,11.57,9.11,1.89,1.46,4.63.46,4.23-2.01-3.233-20.2-5.693-35.7-7.38-46.5-.046-.297-.148-.579-.3-.83-1.4-2.347-3.19-2.637-5.37-.87-18.953,15.353-31.003,25.13-36.15,29.33-.593.48-.913,1.02-.96,1.62-.002.024-.003.048-.004.072-.057,1.396,1.073,2.577,2.524,2.638,5.233.22,9.86.513,13.88.88.54.047.897.13,1.07.25.54.366.702,1.092.37,1.66-8.3,14.107-19.427,25.403-33.38,33.89-7.16,4.353-14.587,6.607-22.28,6.76l-3.69-.71c-.345-.06-.621-.325-.7-.67l-.76-3.24c-.071-.312.072-.631.35-.78,1.27-.68,1.96-1.56,1.87-3.06-.033-.553.09-.97.37-1.25,4.63,2.04,11.87.01,15.85-2.03,10.79-5.55,18.99-12.99,27.07-21.83.107-.116.173-.264.19-.421.041-.407-.258-.774-.669-.819-10.29-.98-14.65-13.06-6.53-19.67,20.72-16.867,32.717-26.603,35.99-29.21,4.04-3.22,8.193-3.98,12.46-2.28,4.027,1.6,6.423,4.743,7.19,9.43,2.567,15.56,5.11,31.16,7.63,46.8.6,8.15-6.55,14.14-14.54,11.83-2.84-1.247-5.313-2.993-7.42-5.24-.052-.057-.113-.104-.181-.141-.34-.185-.765-.059-.949.281-3.36,6.14-7.15,11.893-11.37,17.26-15.147,18.627-34.207,31.693-57.18,39.2-7.69,2.52-20.18,5.05-29.35,10.47-5.57,3.3-9.48,5.33-14.62,1.91-8.97-5.98-16.59-7.52-29.19-11.29-27.2-8.14-48.98-23.683-65.34-46.63l-6.69-11.02c-.013-.021-.028-.042-.044-.061-.21-.256-.584-.296-.836-.089l-5.15,4.17c-4.74,2.6-8.963,2.4-12.67-.6-3.507-2.833-4.943-6.21-4.31-10.13ZM325.849,241.447c.08-.075.127-.179.13-.288-.003.106-.046.21-.13.288ZM325.868,240.866s.002,0,.002.002c.012.013.016.029.026.043-.01-.014-.016-.031-.029-.044ZM325.952,241.002c.013.034.015.07.019.106-.004-.036-.006-.073-.019-.106ZM73.439,299.637c-2.65.63-4.73-1.29-6.26-3.53-14.23-20.96-37.15-38.97-61.34-47-.13-.042-.245-.123-.328-.232-.233-.302-.176-.74.128-.978,9.44-7.233,19.803-11.957,31.09-14.17.026-.005.051-.011.076-.018.424-.124.668-.568.544-.992-.413-1.42-.78-3.073-1.1-4.96-1.827-10.913-4.87-20.96-9.13-30.14-.039-.082-.058-.171-.055-.262.009-.32.28-.575.605-.568.493.013,1.06.13,1.7.35,17.367,5.94,33.007,14.777,46.92,26.51-1.953,9.227,1.157,15.3,9.33,18.22,1.787.633,4.637.563,8.55-.21-6.66,8.767-14.277,16.467-22.85,23.1-4.4,3.407-6.91,5.683-7.53,6.83-1.953,3.62-1.857,7.393.29,11.32,2.64,4.83,9.91,8.88,10.84,14.09.22,1.23-.429,2.388-1.48,2.64ZM323.979,305.367c-24.78,22.93-53.63,38.33-86.56,43.77-2.18.36-4.18.567-6,.62-2.72.08-5.31.76-8.02.84-7.707.247-15.297.23-22.77-.05l-8.77-.19c-3.96-.59-8.29-.58-11.9-1.21-26.26-4.6-50.103-15.05-71.53-31.35-14.11-10.73-27.19-23.43-36.32-38.37-1.653-2.7-3.797-4.51-6.43-5.43-.008-.003-.017-.006-.025-.009-.314-.123-.468-.477-.345-.791.453-1.127.917-1.867,1.39-2.22,12.66-9.433,23.617-20.477,32.87-33.13.039-.053.088-.099.144-.135.251-.16.585-.086.746.165l2.03,3.22c15.42,25.56,39.79,43.71,68.2,52.48,6.85,2.11,11.95,3.76,17.1,5.17.827.227,3.233,1.197,7.22,2.91.372.16.728.357,1.06.59,3.387,2.38,6.823,4.09,10.31,5.13.324.092.667.123,1.01.09,3.64-.4,6.147-1.063,7.52-1.99,5.16-3.493,10.787-6.1,16.88-7.82,7.833-2.2,12.797-3.643,14.89-4.33,24.98-8.23,46.55-23.1,61.87-44.23l7.17-10.83c.185-.284.546-.397.86-.27,1.407.573,2.62,1.473,3.64,2.7,7.127,8.5,12.977,14.773,17.55,18.82,6.907,6.127,11.343,10.02,13.31,11.68.387.327.847.873,1.38,1.64.033.047.059.099.077.153.11.324-.063.676-.387.787-2.387.787-4.333,2.34-5.84,4.66-6.813,10.487-14.257,19.463-22.33,26.93ZM411.579,249.177c-17.68,6.22-33.54,16.62-46.98,29.81-5.7,5.593-10.563,11.547-14.59,17.86-1.373,2.153-3.313,3.11-5.82,2.87-.442-.041-.809-.363-.91-.8-1.18-5.09,3.51-8.27,7.8-12.44,3.367-3.273,4.677-7.137,3.93-11.59-.52-3.02-3.13-5.54-5.73-7.58-9.293-7.267-17.837-15.657-25.63-25.17,5.687.627,10.12-.723,13.3-4.05,2.613-2.733,3.86-5.74,3.74-9.02-.087-2.38-.083-3.947.01-4.7,11.193-9.667,23.533-17.433,37.02-23.3,3.707-1.613,7.887-3.107,12.54-4.48.094-.029.195-.022.284.019.201.092.288.33.196.531-4.16,9.12-7.22,18.953-9.18,29.5-.253,1.367-.507,3.463-.76,6.29-.024.276.144.535.41.63,3.07,1.1,7.76,2.03,11.32,3.39,6.707,2.56,13.13,6.16,19.27,10.8.13.097.228.231.282.385.15.427-.075.895-.502,1.045Z"/>
      <path d="M340.501,271.307c-.357,0-.726.06-1.095.177-.686-.403-1.323-.84-1.938-1.263-2.22-1.525-4.515-3.101-7.315-3.101-.624,0-1.258.08-1.886.237-.023.006-.05.009-.078.009-.135-.005-.213-.07-.249-.109-.036-.039-.095-.121-.091-.244.077-2.195-.927-4.539-2.754-6.431-2.018-2.09-4.715-3.338-7.215-3.338h0c-.874,0-1.712.151-2.489.448-2.003.764-3.897,3.28-5.28,5.116-.246.327-.474.629-.679.89-.17.216-.366.412-.582.582-1.419,1.145-2.475,2.341-3.148,3.564-.217.396-.333.842-.338,1.292-.002.211.026.416.07.617-.343-.251-.758-.389-1.187-.389-.491,0-.964.179-1.332.505l-11.071,9.831-.023.02-.022.022c-.087.087-.162.188-.225.299-.605.95-.702,1.185-.755,1.359-.078.252-.111.521-.096.793.073,1.315,1.231,2.345,2.637,2.345h.057s.11-.002.11-.002c.999,0,1.84.366,2.573,1.119,3.632,3.724,7.686,8.434,12.05,14,.806,1.021,1.121,2.041.967,3.122-.113.775.146,1.577.694,2.142.487.502,1.142.779,1.843.779.669,0,1.303-.255,1.786-.718,3.475-3.356,7.247-6.548,11.213-9.488,1.623-1.21.797-3.865-2.76-8.882-.599-.854-1.493-1.448-2.514-1.669l-.066-.013c-.097-.02-.206-.032-.315-.032-.28,0-.555.074-.796.215-.753.439-1.007,1.409-.568,2.161,1.058,1.812,1.407,3.392,1.037,4.696-.363,1.281-1.454,2.414-3.243,3.367-.054.029-.111.044-.167.044-.05,0-.124-.011-.193-.064-1.468-1.114-3.147-2.943-4.995-5.441-.382-.515-.246-.741-.156-.891.152-.25.434-.393.76-.393.218,0,.437.063.633.183.197.121.725.505,2.019,1.708.27.259.638.406,1.027.406.218,0,.428-.046.626-.137.752-.345,1.082-1.238.737-1.989-1.441-3.315-3.499-5.42-5.882-7.856-.386-.395-.785-.802-1.195-1.229-.452-.473-1.041-.752-1.702-.804l-.039-.003h-.071c-.351,0-.686.109-.969.317-.727.535-.893,1.581-.371,2.333.528.77,1.088,1.617,1.663,2.515-.465.596-.907.998-1.32,1.2l-4.624-5.208c-.131-.146-.151-.355-.053-.524,1.116-1.929,2.384-2.866,3.878-2.866.757,0,1.604.24,2.517.713.26.133.546.201.832.201.441,0,.866-.16,1.198-.449.366-.32.586-.763.618-1.248.033-.485-.125-.954-.445-1.32l-2.473-2.776c.252.078.512.132.783.133,1.265.017,2.366.436,3.359,1.281,2.784,2.377,5.249,4.63,7.424,6.618,1.531,1.399,2.976,2.72,4.385,3.953,1.362,1.191,2.106,2.434,2.276,3.801.06.49.237.968.514,1.381.604.899,1.625,1.435,2.733,1.435.659,0,1.302-.19,1.858-.55.058-.037,5.617-4.056,5.035-7.176-.146-.783-.721-1.801-2.633-2.202-.773-.156-1.303-.274-1.583-.354-.365-.095-.681-.256-.961-.484-1.814-1.446-3.417-2.844-4.774-4.162-.034-.032-.059-.071-.076-.114-.082-.207.049-.467.287-.567.257-.108.504-.16.755-.16.395,0,.798.13,1.231.399.602.371,1.234.788,1.903,1.229,2.469,1.627,5.268,3.472,7.96,3.946.244.043.49.064.732.064,3.164,0,5.013-3.468,5.266-5.812.068-.615-.123-1.238-.524-1.707-.777-.927-1.697-1.4-2.728-1.4ZM321.275,271.017l-.373.381-5.773-5.628.375-.383c.24-.245.59-.296.842-.296.742,0,1.604.408,2.306,1.092l1.751,1.701c.705.69,1.144,1.572,1.151,2.308.003.244-.044.586-.278.825Z"/>
      <path d="M300.325,295.873c-.747-.419-1.611-.596-2.374-.753-.682-.14-1.387-.285-1.723-.563-.067-.055-.105-.128-.109-.204-.23-4.56-1.896-7.784-4.952-9.578-1.302-.768-2.56-1.158-3.739-1.158h0c-1.182,0-2.286.385-3.284,1.145-2.854,2.185-5.792,4.152-8.734,5.849-.677.394-1.155,1.056-1.315,1.819-.151.72-.013,1.455.39,2.069.401.612,1.017,1.03,1.734,1.178.686.142,1.367.421,2.023.829.37.23.678.528.917.886,3.092,4.701,6.049,9.288,8.786,13.629,1.086,1.722,1.636,3.474,1.636,5.207.003.65.227,1.283.631,1.787.548.683,1.364,1.074,2.24,1.074.65,0,1.287-.224,1.794-.631,2.011-1.614,4.156-3.082,6.375-4.364,2.654-1.536,4.279-2.968,4.968-4.377,2.256-4.632-1.009-11.483-5.263-13.844ZM289.813,297.118c-.052.271-.186.643-.524.871l-.083.06-4.583-6.751.078-.053c.198-.135.427-.201.688-.201.754,0,1.603.532,2.163,1.356l1.709,2.519c.475.702.682,1.524.551,2.199ZM297.606,309.215l-.5.366-4.974-6.901.501-.361c.227-.163.5-.246.813-.246.772,0,1.604.49,2.172,1.278l1.961,2.712c.42.584.646,1.279.618,1.906-.014.317-.109.899-.591,1.246Z"/>
      <path d="M285.592,316.67c-.486-.633-.917-1.278-1.334-1.901-1.819-2.719-3.7-5.531-7.444-6.043-.035-.005-.066-.013-.095-.026-.166-.074-.241-.27-.167-.436,1.14-2.584.699-5.977-1.148-8.859-1.73-2.7-4.321-4.337-6.93-4.378h-.008s-.052,0-.052,0h0c-2.122,0-4.784,1.611-6.727,2.788-.346.209-.665.403-.949.567-.24.14-.493.249-.755.327-1.732.532-3.151,1.246-4.227,2.124-.347.284-.62.651-.791,1.064-.278.671-.279,1.41-.001,2.082.278.671.8,1.194,1.471,1.473,1.168.485,2.032,1.281,2.638,2.433,1.741,3.306,3.217,6.365,4.521,9.065.863,1.789,1.679,3.478,2.492,5.081.82,1.605,1.05,3.029.704,4.355-.129.476-.142.992-.035,1.482.323,1.493,1.694,2.577,3.26,2.577.223,0,.448-.022.667-.066,1.034-.208,6.765-1.973,7.317-4.788.152-.778-.007-1.931-1.629-3.006-.652-.432-1.101-.742-1.336-.921-.296-.219-.528-.485-.701-.799-1.145-2.007-2.113-3.892-2.882-5.614-.015-.035-.024-.08-.024-.127,0-.222.214-.412.465-.415h.051c.682,0,1.222.302,1.699.952.419.566.848,1.183,1.292,1.822,1.687,2.424,3.598,5.172,5.915,6.615.67.411,1.399.619,2.174.619,2.321,0,4.528-1.871,5.508-3.719.292-.535.351-1.186.156-1.774-.653-1.969-2.044-2.475-3.096-2.552ZM268.68,309.871l-3.336-7.463c.212-.082.432-.123.66-.123.931,0,1.856.671,2.302,1.669l1.201,2.681c.574,1.285.202,2.716-.826,3.235Z"/>
      <path d="M263.819,327.94c-.837-.254-1.492-.731-1.946-1.415-4.723-7.254-8.795-13.224-12.096-17.738-1.241-1.697-2.655-3.095-4.202-4.155-.527-.366-1.15-.561-1.796-.561-.841,0-1.629.327-2.219.922-1.142,1.15-1.547,2.566-1.171,4.093,1.763,7.23,1.81,13.478,1.741,23.074-.008,1.162-.296,1.971-.961,2.706-.524.584-.789,1.363-.731,2.141.112,1.494,1.373,2.665,2.87,2.665.072,0,.144-.003.217-.008,2.01-.146,3.858-.818,5.491-1.996.421-.304.741-.722.926-1.207.519-1.366-.17-2.9-1.536-3.419l-1.049-.4c-.413-.799-.537-1.41-.373-1.79.179-.413.77-.661,1.235-.795.312-.091.651-.202,1.006-.319.999-.329,2.13-.701,3.02-.701.659,0,1.318.121,1.504,1.567.012.094-.018.187-.083.254l-.464.495c-.539.571-.706,1.419-.425,2.159.757,1.987,2.176,2.284,2.954,2.284.096,0,.194-.004.293-.012.885-.07,8.7-.813,9.375-5.215.184-1.169-.494-2.301-1.579-2.629ZM246.691,323.671c-1.084-3.436-.802-5.604-.485-5.937l.052-.019c.452.078,1.978,1.636,3.18,5.032l-2.748.923Z"/>
      <path d="M234.077,323.867c-.549-.425-1.116-.865-1.296-1.263-.036-.078-.039-.159-.01-.228,1.798-4.193,1.722-7.815-.227-10.761-1.404-2.132-3.135-3.214-5.145-3.214h0c-.372,0-.756.039-1.142.114-3.517.702-7.014,1.174-10.395,1.403-.778.049-1.504.432-1.987,1.052-.928,1.193-.712,2.917.48,3.845.552.427,1.037.974,1.445,1.629.233.37.38.772.438,1.197.701,5.571,1.333,10.981,1.876,16.07.218,2.025-.058,3.835-.822,5.381-.295.593-.375,1.278-.223,1.926.305,1.299,1.449,2.207,2.783,2.207.22,0,.44-.026.655-.076,2.501-.557,5.069-.93,7.62-1.106,3.05-.209,5.135-.777,6.374-1.737,4.067-3.168,4.15-10.743,1.367-14.723-.48-.7-1.177-1.24-1.792-1.717ZM223.794,314.548c.037-.003.074-.004.11-.004,1.003,0,1.931,1.041,2.114,2.369l.41,2.99c.101.742-.033,1.459-.376,2.022-.284.465-.681.766-1.125.856l-1.133-8.232ZM228.816,335.157c-.16.688-.749,1.184-1.401,1.184l-.071-.002c.009-.007-.111-.102-.266-.439-.349-.758-.673-1.991-.964-3.664-.291-1.667-.401-2.937-.329-3.773.029-.341.102-.493.127-.523.13-.047.308-.084.491-.084.503,0,.977.267,1.266.714.477.736.842,1.815,1.084,3.208.242,1.392.263,2.529.062,3.379Z"/>
      <path d="M195.898,336.482l.019-.478c.164-4.094.263-6.571-2.675-9.822.212-.595.649-1.027,1.153-1.525.541-.534,1.154-1.14,1.511-2.024,1.321-3.297,1.928-8.216-.703-11.241-1.94-2.208-4.843-2.403-7.651-2.414-1.021,0-1.986-.225-2.919-.442-.757-.176-1.539-.358-2.333-.416-.066-.005-.129-.007-.193-.007-1.414,0-2.652,1.1-2.942,2.616-.274,1.335.31,2.186.696,2.749.236.344.371.551.388.792.088,1.223.086,2.232-.005,2.998-.623,5.352-1.252,10.362-1.868,14.894-.252,1.817-.823,2.798-2.006,4.308-.058.074-.114.153-.167.234-.425.664-.566,1.453-.397,2.223.169.77.628,1.427,1.291,1.852,1.465.94,3.141,1.418,4.979,1.418.784,0,1.612-.088,2.459-.26.637-.122,1.187-.555,1.46-1.155.57-1.201.501-2.458-.205-3.623-.684-1.161-.529-4.376.42-8.602.805.205,1.159.68,1.185,1.618.087,3.086.243,5.896.464,8.352.189,2.002,1.109,5.352,5.154,5.352.274,0,.563-.016.858-.047,1.216-.13,2.79-.817,3.397-3.352.142-.647-.03-1.307-.454-1.786-.763-.861-.963-1.234-.92-2.213ZM189.362,317.107l-.65,3.927c-.172,1.043-1.002,1.829-1.931,1.829-.062,0-.125-.004-.188-.011l1.337-8.143c.437.089.833.366,1.107.781.304.463.42,1.037.326,1.617Z"/>
      <path d="M171.628,304.94c-.615-.179-1.256-.269-1.907-.269-5.222,0-10.703,5.821-13.033,13.84-2.691,9.262-.344,17.811,5.342,19.463.615.179,1.256.269,1.907.269,5.222,0,10.703-5.821,13.033-13.84,2.691-9.262.344-17.811-5.342-19.463ZM169.393,321.78c-.871,5.971-3.004,9.228-3.856,9.228l-.026-.002c-.743-.108-2.008-3.625-1.085-9.951.871-5.971,3.004-9.228,3.856-9.228.769.11,2.034,3.627,1.111,9.953Z"/>
      <path d="M154.279,314.912c3.212-2.275,6.321-6.747,5.753-10.552-.255-1.712-1.359-4.018-5.168-5.282-1.645-.553-3.224-1.439-4.618-2.221-.659-.37-1.282-.719-1.863-1.007-.391-.194-.828-.297-1.264-.297-.355,0-.704.066-1.036.196-1.49.582-2.26,2.309-1.716,3.851.359,1.002.279,2.033-.244,3.155-2.151,4.646-4.889,10.149-8.139,16.358-.075.139-.18.275-.307.393l-3.065,2.904c-.385.376-.591.858-.597,1.374-.006.515.189,1.002.55,1.371.679.679.939.858,1.183.953,2.682,1.163,5.281,2.401,7.688,3.664,1.526.801,2.888,1.19,4.165,1.19,1.635,0,3.138-.656,4.467-1.949,3.659-3.548,6.647-8.939,4.059-13.426-.129-.228-.065-.52.153-.676ZM146.939,319.044l-1.591,3.521c-.408.895-1.249,1.469-2.145,1.469-.283,0-.557-.059-.814-.175l3.578-7.891.018.008c1.062.484,1.499,1.864.953,3.068ZM152.119,306.742l-1.379,2.838c-.473.982-1.352,1.666-2.139,1.666-.159,0-.309-.029-.447-.087l3.59-7.416c.785.422.964,1.782.376,3Z"/>
      <path d="M133.916,306.566c.456-.433,1.043-.62,1.721-.837.724-.232,1.545-.494,2.26-1.119,2.672-2.345,5.44-6.464,4.452-10.359-.737-2.856-3.237-4.34-5.735-5.615-.909-.46-1.668-1.094-2.402-1.707-.601-.502-1.223-1.022-1.912-1.432-.421-.253-.914-.388-1.422-.388-.962,0-1.914.483-2.547,1.292-.849,1.082-.718,2.062-.623,2.778.055.414.082.658-.012.883-.473,1.136-.93,2.037-1.359,2.68-2.978,4.496-5.804,8.687-8.401,12.457-1.034,1.497-1.99,2.118-3.742,2.943-.085.04-.169.084-.251.133-1.399.829-1.863,2.642-1.033,4.042,1.263,2.147,3.321,3.626,6.115,4.394.172.049.362.076.552.076.464,0,.919-.161,1.281-.452,1.041-.813,1.547-1.965,1.45-3.32-.043-.639.287-2.653,4.251-7.496.635.555.732,1.138.336,1.982-1.315,2.791-2.444,5.371-3.354,7.666-.726,1.84-.804,3.43-.231,4.727.533,1.207,1.609,2.125,3.196,2.727.449.17.9.256,1.343.256,1.166,0,2.244-.577,3.206-1.715.418-.508.566-1.176.404-1.797-.296-1.114-.308-1.537.175-2.4l.224-.4c2.005-3.587,3.218-5.757,2.06-9.999ZM130.359,300.849c-.334,0-.648-.088-.914-.255l4.853-6.675c.784.652.842,1.965.104,2.979l-2.091,2.881c-.489.67-1.218,1.069-1.951,1.069Z"/>
      <path d="M112.84,303.332c2.975-5.564,6.189-11.967,9.553-19.035.586-1.231,1.046-2.909,1.404-5.13.092-.578-.036-1.158-.362-1.633-.772-1.139-1.633-1.693-2.628-1.693-.866,0-1.741.432-2.754,1.36-4.888,4.462-10.677,8.631-17.203,12.391-.388.224-.751.466-1.102.7-1.029.685-1.917,1.277-3.143,1.277-.116,0-.235-.005-.358-.016-.088-.008-.177-.012-.267-.012-.477,0-.954.115-1.379.332-.715.366-1.238.982-1.472,1.735-.226.729-.152,1.498.21,2.167.678,1.246,1.935,2.382,3.843,3.472.328.183.69.277,1.056.277.378,0,.751-.1,1.079-.289,1.622-.938,2.224-2.337,1.663-3.85l1.775-1.575,3.469,3.439c.096.093.164.203.205.326.069.203.272.805-.971,1.808-.193-.063-.416-.096-.639-.096-1.04,0-2.001.667-2.937,2.039-.442.666-.413,1.523.063,2.143l.067.086c1.433,1.839,4.101,5.262,6.935,5.608.122.015.248.023.375.023.097,0,.195-.005.291-.014.803-.077,1.519-.457,2.017-1.069.475-.583.692-1.312.612-2.051-.104-.894.091-1.78.596-2.718ZM110.225,291.739l-1.892-1.656c2.154-2.373,4.026-3.464,4.749-3.51.044.569-.647,2.555-2.857,5.166Z"/>
      <path d="M94.263,288.576c.229-.741.446-1.441.949-1.864,5.799-4.847,10.737-8.753,14.673-11.606.19-.137.416-.21.652-.21.037,0,.075.002.112.006.202.019.39.027.572.027,1.857,0,2.828-.932,3.316-1.713.48-.773.592-1.729.323-2.766-.575-2.222-2.81-4.519-4.135-5.257-.118-.064-.232-.118-.35-.165-.362-.143-.742-.216-1.128-.216-1.262,0-2.376.756-2.838,1.927-1.034,2.587-2.858,4.536-5.574,5.949-.319-.328-.71-.783-1.163-1.354-.456-.568-.814-1.05-1.069-1.439,1.971-2.333,4.276-3.685,7.032-4.122.122-.019.249-.046.373-.082,1.616-.462,2.555-2.158,2.092-3.78-.565-1.928-3.189-5.667-5.989-5.667h0c-.343,0-.679.056-.999.166-.986.345-2.216,1.217-2.506,3.415-.034.281-.165.53-.37.71-3.651,3.209-8.549,7.164-14.556,11.756-.52.394-1.249.45-2.02.509-.893.068-1.817.139-2.498.797-1.197,1.126-1.526,2.491-.915,3.833.875,1.943,2.765,5.209,5.568,5.209.486,0,.973-.101,1.449-.3.678-.286,1.302-1.047,2.025-2.469,1.016-2.026,3.022-3.93,5.966-5.666.387.308.802.735,1.235,1.272.422.534.747,1.034.96,1.478-2.344,2.488-4.643,4.027-6.835,4.573-1.547.387-2.428.827-2.86,1.426-1.613,2.26-.432,5.15,3.238,7.931.576.433,1.202.651,1.863.651.683,0,1.385-.238,2.087-.707.78-.515,1.054-1.398,1.318-2.252Z"/>
    </g>
    <path class="st1" d="M221.449,51.057c1.573-1.08,2.8-1.933,3.68-2.56,4.94-3.52,8.417-7.953,10.43-13.3.049-.105.174-.151.279-.101.078.036.125.116.121.201-1.03,8.97-4.76,15.23-14.39,16.1-.105.002-.191-.082-.193-.187-.001-.06.026-.117.073-.153Z"/>
    <path class="st2" d="M208.129,56.167c6.187,0,11.287.007,15.3.02,2.947.013,5.073.437,6.38,1.27.365.219.701.485,1,.79l4.23,4.32c.323.332.319.863-.008,1.185-.14.138-.326.222-.522.235-.807.06-9.6.09-26.38.09-16.773.007-25.563-.023-26.37-.09-.458-.03-.802-.429-.767-.891.015-.198.099-.386.237-.529l4.23-4.32c.299-.305.635-.571,1-.79,1.307-.833,3.433-1.257,6.38-1.27,4.013-.013,9.11-.02,15.29-.02Z"/>
    <rect class="st2" x="203.209" y="38.067" width="9.92" height="63.8" rx="4.87" ry="4.87" transform="translate(137.839 278.014) rotate(-89.9)"/>
    <rect class="st2" x="181.219" y="75.857" width="53.8" height="11.76" rx=".28" ry=".28"/>
    <path class="st7" d="M204.419,89.107l-22.92,15.41c-.146.099-.345.062-.445-.085-.035-.052-.055-.113-.055-.175v-15.42c0-.177.143-.32.32-.32h22.92c.177-.005.324.135.328.311.003.112-.053.218-.148.279Z"/>
    <path class="st3" d="M180.979,140.227v-15.07c-.002-.213.103-.412.28-.53l52.97-35.64c.289-.193.681-.115.874.174.068.103.105.223.106.346v15.07c.002.213-.103.412-.28.53l-52.97,35.64c-.289.193-.681.115-.874-.174-.068-.103-.105-.223-.106-.346Z"/>
    <path class="st7" d="M234.999,141.377l-46.74,31.52-6.66,4.67c-.186.128-.441.084-.569-.097-.048-.068-.073-.15-.071-.233v-14.75c0-.738.368-1.428.98-1.84l31.83-21.31,20.36-13.74.24-.18c.155-.116.374-.085.49.07.045.061.07.134.07.21l.07,15.68Z"/>
    <path class="st3" d="M235.079,162.107l-.01,15.29c0,.443-.217.856-.58,1.1l-52.66,35.43c-.225.15-.529.093-.678-.126-.055-.081-.084-.176-.082-.274v-14.84c0-.376.183-.727.49-.94l6.17-4.33,47.35-31.31Z"/>
    <path class="st2" d="M170.669,248.107c2.26.44,4.38.263,6.36-.53.282-.112.602.025.714.308.011.027.019.054.026.082.027.12.01.413-.05.88-.16,1.24.86,2.31,1.94,2.91.263.151.396.455.33.75l-.75,3.24c-.08.32-.326.57-.64.65-2.487.633-5.043.82-7.67.56-6.04-.767-11.533-2.587-16.48-5.46-14.82-8.593-26.583-20.283-35.29-35.07-.329-.556-.145-1.274.411-1.603.029-.017.058-.033.089-.047.28-.133.787-.227,1.52-.28,5.073-.373,9.503-.643,13.29-.81,1.403-.062,2.526-1.124,2.59-2.45.027-.693-.29-1.313-.95-1.86-4.247-3.46-16.443-13.353-36.59-29.68-1.77-1.44-3.86-.7-5.03,1.26-.119.191-.197.409-.23.64-1.293,8.407-3.76,23.94-7.4,46.6-.38,2.36,2.23,3.54,4.08,2.13,4.487-3.427,8.393-6.493,11.72-9.2.655-.533,1.619-.434,2.152.221.089.109.162.23.218.359,12.93,30.3,39.68,52.59,71.19,61.77,12.49,3.64,21.49,5.8,30.98,12.22.562.38,1.298.38,1.86,0,5.82-3.9,12.17-6.813,19.05-8.74,5.967-1.68,10.85-3.117,14.65-4.31,30.34-9.53,55.91-31.53,68.53-60.93.333-.771,1.224-1.128,1.99-.799.13.056.251.129.36.219,2.44,2,6.297,5.037,11.57,9.11,1.89,1.46,4.63.46,4.23-2.01-3.233-20.2-5.693-35.7-7.38-46.5-.046-.297-.148-.579-.3-.83-1.4-2.347-3.19-2.637-5.37-.87-18.953,15.353-31.003,25.13-36.15,29.33-.593.48-.913,1.02-.96,1.62-.098,1.394.996,2.605,2.445,2.706.025.002.05.003.075.004,5.233.22,9.86.513,13.88.88.54.047.897.13,1.07.25.54.366.702,1.092.37,1.66-8.3,14.107-19.427,25.403-33.38,33.89-7.16,4.353-14.587,6.607-22.28,6.76l-3.69-.71c-.345-.06-.621-.325-.7-.67l-.76-3.24c-.071-.312.072-.631.35-.78,1.27-.68,1.96-1.56,1.87-3.06-.033-.553.09-.97.37-1.25,4.63,2.04,11.87.01,15.85-2.03,10.79-5.55,18.99-12.99,27.07-21.83.277-.301.253-.77-.053-1.048-.118-.107-.268-.175-.427-.192-10.29-.98-14.65-13.06-6.53-19.67,20.72-16.867,32.717-26.603,35.99-29.21,4.04-3.22,8.193-3.98,12.46-2.28,4.027,1.6,6.423,4.743,7.19,9.43,2.567,15.56,5.11,31.16,7.63,46.8.6,8.15-6.55,14.14-14.54,11.83-2.84-1.247-5.313-2.993-7.42-5.24-.262-.284-.705-.303-.989-.041-.057.052-.104.113-.141.181-3.36,6.14-7.15,11.893-11.37,17.26-15.147,18.627-34.207,31.693-57.18,39.2-7.69,2.52-20.18,5.05-29.35,10.47-5.57,3.3-9.48,5.33-14.62,1.91-8.97-5.98-16.59-7.52-29.19-11.29-27.2-8.14-48.98-23.683-65.34-46.63l-6.69-11.02c-.177-.28-.544-.367-.82-.193-.021.013-.041.028-.06.043l-5.15,4.17c-4.74,2.6-8.963,2.4-12.67-.6-3.507-2.833-4.943-6.21-4.31-10.13,3.793-23.633,6.24-39.067,7.34-46.3.6-3.92,2.593-6.967,5.98-9.14,1.3-.773,2.763-1.26,4.39-1.46,3.467-.36,6.297.35,8.49,2.13,7.787,6.32,18.927,15.35,33.42,27.09,3.07,2.49,6.49,4.98,7.39,8.42,1.91,7.38-3.03,13.5-10.3,14.25-.401.042-.692.402-.65.802.016.151.079.294.18.408,9.33,10.47,22.57,22.64,36.19,24.59Z"/>
    <path class="st7" d="M216.989,227.647c-.073-.007-.1.123-.08.39l-24.73-.18c-.243.001-.441-.195-.442-.438,0-.15.075-.291.202-.372l42.68-28.72c.13-.083.302-.05.386.074.029.043.044.094.044.146v15.32c0,.475-.236.918-.63,1.18l-18.12,12.19c-.078.052-.1.157-.048.236.027.04.07.068.118.074l.62.1Z"/>
    <path class="st6" d="M216.909,228.037c-.02-.267.007-.397.08-.39l17.76-11.93c.146-.099.345-.062.445.085.037.055.057.119.055.185v11.52c0,.265-.215.48-.48.48l-17.86.05Z"/>
    <rect class="st2" x="180.969" y="229.037" width="54.3" height="12.52" rx=".43" ry=".43"/>
    <rect class="st2" x="178.549" y="242.387" width="59.2" height="8.82" rx="2.58" ry="2.58"/>
    <path class="st2" d="M178.039,264.397l2.73-11.74c.06-.261.292-.448.56-.45h53.62c.268.002.5.189.56.45l2.73,11.74c.072.312-.123.623-.435.695-.041.009-.083.014-.125.015h-59.07c-.32.003-.582-.255-.585-.575,0-.045.005-.091.015-.135Z"/>
    <rect class="st2" x="174.389" y="266.117" width="67.44" height="8.76" rx="2.84" ry="2.84"/>
  </g>
  <g id="Layer_5">
    <path class="st6" d="M98.889,271.957c.54.68.997,1.203,1.37,1.57.231.224.575.281.86.14,3.007-1.52,5.08-3.707,6.22-6.56.416-1.053,1.611-1.567,2.669-1.148.079.031.157.068.231.109,1.58.88,4.78,4.48,3.45,6.62-.587.94-1.567,1.347-2.94,1.22-.516-.051-1.031.087-1.45.39-3.973,2.88-8.883,6.763-14.73,11.65-1.38,1.16-1.15,3.37-2.18,4.05-1.027.687-1.957.717-2.79.09-1.94-1.47-4.7-4.21-3.03-6.55.273-.38,1.037-.727,2.29-1.04,2.407-.6,4.863-2.237,7.37-4.91.251-.269.314-.661.16-.99-.247-.533-.62-1.117-1.12-1.75-.507-.627-.993-1.12-1.46-1.48-.288-.222-.683-.246-1-.06-3.16,1.853-5.297,3.89-6.41,6.11-.587,1.153-1.093,1.82-1.52,2-2.65,1.11-4.72-2.18-5.72-4.4-.433-.953-.2-1.853.7-2.7.89-.86,2.99-.14,4.43-1.23,6.053-4.627,10.923-8.56,14.61-11.8.388-.342.637-.815.7-1.33.18-1.367.793-2.233,1.84-2.6,2.38-.82,5.19,3.09,5.7,4.83.312,1.094-.317,2.233-1.406,2.545-.083.024-.168.042-.254.055-3.033.48-5.623,2.02-7.77,4.62-.199.248-.219.596-.05.87.28.447.69,1.007,1.23,1.68Z"/>
    <path class="st6" d="M326.849,266.977c-.027.74.551,1.361,1.29,1.388.124.005.249-.008.37-.038,4.03-1.01,6.93,1.89,10.32,4,.26.164.582.205.88.11,1.047-.333,1.967-.027,2.76.92.223.261.328.605.29.95-.24,2.22-2.09,5.35-4.83,4.87-3.18-.56-6.69-3.3-9.51-5.04-.98-.607-1.947-.71-2.9-.31-.742.312-1.113,1.144-.829,1.859.069.174.174.331.309.461,1.387,1.347,3,2.753,4.84,4.22.389.316.839.545,1.32.67.307.087.857.21,1.65.37,4.96,1.04-1.29,6.62-2.74,7.56-1.083.701-2.524.431-3.218-.603-.191-.284-.311-.608-.352-.947-.2-1.607-1.07-3.083-2.61-4.43-3.44-3.01-7.1-6.55-11.82-10.58-1.167-.993-2.5-1.5-4-1.52-.95-.007-1.713-.786-1.704-1.741.003-.286.076-.568.214-.819.613-1.113,1.577-2.2,2.89-3.26.279-.219.531-.471.75-.75,1.29-1.64,3.46-4.9,5.53-5.69,4.78-1.83,11.28,3.23,11.1,8.35ZM314.329,266.387l5.97,5.82c.338.334.882.331,1.216-.006.001-.001.003-.003.004-.004l.47-.48c1.017-1.037.623-3.07-.882-4.542-.003-.003-.006-.005-.008-.008l-1.75-1.7c-1.505-1.467-3.545-1.816-4.56-.78l-.47.48c-.334.338-.331.882.006,1.216.001.001.003.003.004.004Z"/>
    <path class="st6" d="M314.809,289.177c.115.251.005.548-.246.663-.186.086-.406.049-.554-.093-1.04-.967-1.767-1.577-2.18-1.83-.982-.597-2.217-.358-2.76.534-.003.005-.007.011-.01.016-.38.633-.31,1.3.21,2,1.913,2.587,3.643,4.467,5.19,5.64.412.316.976.36,1.44.11,4.127-2.2,4.993-5.35,2.6-9.45-.161-.277-.068-.632.209-.793.124-.072.271-.096.411-.067l.05.01c.772.167,1.454.621,1.91,1.27,3.007,4.24,4,6.74,2.98,7.5-4.02,2.98-7.79,6.17-11.31,9.57-.625.6-1.618.584-2.219-.035-.336-.346-.491-.828-.422-1.305.193-1.353-.197-2.647-1.17-3.88-4.407-5.62-8.447-10.313-12.12-14.08-.953-.98-2.093-1.453-3.42-1.42-.881.018-1.631-.609-1.675-1.4-.008-.152.01-.304.055-.45.04-.133.26-.513.66-1.14.02-.039.043-.073.07-.1l11.07-9.83c.415-.368,1.049-.332,1.42.08l4,4.49c.298.341.263.859-.078,1.157-.252.22-.613.265-.912.113-3.207-1.66-5.78-.813-7.72,2.54-.315.543-.246,1.225.17,1.69l4.67,5.26c.261.298.683.391,1.04.23.62-.273,1.243-.827,1.87-1.66.198-.259.214-.614.04-.89-.613-.96-1.203-1.853-1.77-2.68-.216-.312-.153-.74.143-.957.118-.087.261-.13.407-.123.42.033.773.2,1.06.5,2.95,3.07,5.29,5.13,6.89,8.81Z"/>
    <path class="st6" d="M102.709,301.887c.873-1.28,1.71-1.793,2.51-1.54.279.094.589.037.82-.15,1.227-.973,1.673-1.953,1.34-2.94-.092-.276-.246-.523-.45-.72l-3.5-3.47c-.361-.353-.933-.366-1.31-.03l-1.86,1.65c-.277.247-.373.638-.24.98.433,1.087.033,1.987-1.2,2.7-.354.204-.786.208-1.14.01-1.727-.987-2.88-2.013-3.46-3.08-.493-.912-.118-2.047.837-2.536.339-.174.723-.248,1.103-.214,2.28.2,3.58-1.16,5.19-2.09,6.62-3.813,12.413-7.987,17.38-12.52,1.56-1.43,2.72-1.55,3.88.16.18.263.251.589.2.91-.34,2.107-.78,3.727-1.32,4.86-3.373,7.087-6.55,13.417-9.53,18.99-.6,1.113-.837,2.213-.71,3.3.11,1.011-.665,1.914-1.731,2.016-.149.014-.3.012-.449-.006-2.46-.3-5.02-3.63-6.33-5.31-.216-.281-.228-.671-.03-.97ZM107.219,290.437l2.8,2.45c.165.147.418.131.565-.034.002-.002.004-.004.005-.006l.13-.15c2.619-2.992,3.994-6.072,3.071-6.879,0,0,0,0-.001,0l-.06-.05c-.921-.809-3.791.959-6.41,3.95l-.14.15c-.147.165-.131.418.034.565.002.002.004.004.006.005Z"/>
    <path class="st6" d="M295.589,295.327c.99.82,2.93.68,4.25,1.42,3.73,2.07,6.91,8.3,4.85,12.53-.593,1.213-2.117,2.53-4.57,3.95-2.273,1.313-4.44,2.797-6.5,4.45-.806.646-1.983.517-2.629-.289-.264-.33-.409-.739-.411-1.161,0-1.933-.597-3.847-1.79-5.74-2.753-4.367-5.687-8.917-8.8-13.65-.316-.474-.732-.877-1.22-1.18-.76-.473-1.543-.793-2.35-.96-.942-.194-1.545-1.117-1.346-2.062.102-.487.406-.908.836-1.158,2.993-1.727,5.94-3.7,8.84-5.92,1.68-1.28,3.65-1.253,5.91.08,2.76,1.62,4.247,4.543,4.46,8.77.019.357.19.691.47.92ZM283.679,291.687l4.82,7.1c.244.361.735.456,1.097.212.001,0,.002-.001.003-.002l.25-.18c1.236-.835,1.343-2.831.241-4.459,0,0,0,0,0,0l-1.71-2.52c-1.106-1.626-3.002-2.263-4.234-1.424-.002.001-.004.003-.006.004l-.25.17c-.361.244-.456.735-.212,1.097,0,.001.001.002.002.003ZM291.279,303.207l5.06,7.02c.295.414.87.51,1.283.215.002-.002.005-.003.007-.005l.56-.41c1.264-.909,1.354-2.945.2-4.55l-1.96-2.71c-1.155-1.604-3.115-2.168-4.38-1.26l-.57.41c-.411.299-.502.874-.204,1.285.001.002.002.003.004.005Z"/>
    <path class="st6" d="M127.109,304.677c-.385-.31-.947-.252-1.26.13-1.38,1.68-4.7,5.88-4.54,8.28.073,1.027-.287,1.85-1.08,2.47-.264.213-.614.284-.94.19-2.547-.7-4.387-2.013-5.52-3.94-.549-.926-.243-2.123.683-2.672.054-.032.11-.062.167-.088,1.87-.88,2.98-1.6,4.14-3.28,2.613-3.793,5.417-7.95,8.41-12.47.467-.7.95-1.65,1.45-2.85.48-1.15-.52-2.13.5-3.43.688-.88,1.833-1.163,2.67-.66,1.43.85,2.59,2.27,4.37,3.17,2.37,1.21,4.59,2.53,5.22,4.97.85,3.35-1.61,7.14-4.14,9.36-1.18,1.03-2.85.84-4.06,2.03-.235.235-.327.579-.24.9,1.11,4.02-.06,5.89-2.18,9.69-.66,1.18-.6,1.9-.27,3.14.082.313.007.648-.2.9-1.053,1.247-2.197,1.637-3.43,1.17-2.793-1.06-3.59-3.11-2.39-6.15.907-2.287,2.017-4.823,3.33-7.61.607-1.293.377-2.377-.69-3.25ZM133.629,293.137l-5.14,7.07c-.245.34-.169.814.17,1.06l.1.07c1.315.961,3.266.529,4.357-.965.001-.001.002-.003.003-.005l2.09-2.88c1.089-1.496.904-3.486-.413-4.445-.002-.002-.004-.003-.007-.005l-.1-.07c-.34-.245-.814-.169-1.06.17Z"/>
    <path class="st6" d="M275.639,307.857c-.299.671.002,1.457.673,1.756.117.052.24.087.367.104,4.1.56,5.71,4.32,8.07,7.52.178.249.46.407.77.43,1.093.08,1.833.703,2.22,1.87.109.327.076.686-.09.99-1.04,1.96-3.91,4.17-6.27,2.72-2.73-1.7-4.97-5.53-6.93-8.18-.68-.927-1.537-1.38-2.57-1.36-.799.011-1.449.643-1.451,1.412,0,.185.037.368.111.538.787,1.76,1.76,3.657,2.92,5.69.241.437.572.815.97,1.11.253.193.717.513,1.39.96,4.21,2.79-3.64,5.64-5.33,5.98-1.26.25-2.494-.53-2.756-1.741-.073-.337-.064-.686.026-1.019.407-1.56.147-3.247-.78-5.06-2.06-4.06-4.14-8.69-7.02-14.16-.713-1.353-1.76-2.317-3.14-2.89-.877-.364-1.294-1.37-.93-2.248.109-.262.28-.493.5-.672.98-.8,2.273-1.447,3.88-1.94.339-.101.665-.242.97-.42,1.8-1.04,5.02-3.25,7.22-3.22,5.1.08,9.24,7.16,7.18,11.83ZM264.329,302.587l3.54,7.92c.169.378.612.548.99.38l.16-.07c1.588-.716,2.214-2.768,1.4-4.59l-1.2-2.68c-.814-1.825-2.766-2.73-4.36-2.02l-.16.07c-.374.172-.54.614-.37.99Z"/>
    <path class="st6" d="M133.279,324.457c-.359-.367-.352-.956.015-1.315.002-.002.003-.003.005-.005l3.06-2.9c.205-.192.378-.415.51-.66,3.273-6.253,5.993-11.72,8.16-16.4.633-1.36.727-2.663.28-3.91-.367-1.04.142-2.198,1.136-2.586.487-.19,1.025-.166,1.493.066,1.78.88,4.08,2.43,6.61,3.28,8.14,2.7,3.78,10.79-.85,14.07-.636.452-.826,1.312-.44,1.99,2.33,4.04-.59,9.01-3.89,12.21-2.23,2.17-4.67,2.06-7.47.59-2.44-1.28-5.037-2.517-7.79-3.71-.12-.047-.397-.287-.83-.72ZM150.949,303.087l-3.8,7.85c-.184.378-.026.832.351,1.016.003.001.006.003.009.004l.16.08c1.344.646,3.121-.259,3.97-2.02,0,0,0,0,0,0l1.38-2.84c.85-1.759.451-3.711-.89-4.36l-.17-.08c-.376-.18-.826-.024-1.01.35ZM145.119,315.417l-3.7,8.16c-.197.426-.011.931.416,1.128.001,0,.003.001.004.002l.13.06c1.588.725,3.506-.072,4.286-1.781.001-.003.003-.006.004-.009l1.59-3.52c.775-1.709.117-3.678-1.47-4.4l-.14-.06c-.425-.191-.925-.003-1.12.42Z"/>
    <path class="st6" d="M264.409,330.417c-.48,3.13-6.19,4.19-8.47,4.37-1.04.087-1.783-.457-2.23-1.63-.147-.387-.061-.822.22-1.12l.45-.48c.277-.284.41-.681.36-1.08-.51-3.97-4.46-2.06-6.8-1.38-2.047.593-2.543,1.92-1.49,3.98.115.231.312.41.55.5l1.05.4c.852.324,1.28,1.277.956,2.129-.115.301-.315.563-.576.751-1.487,1.073-3.147,1.677-4.98,1.81-1.035.078-1.938-.699-2.015-1.734-.038-.51.133-1.015.475-1.396.86-.95,1.21-2,1.22-3.37.07-9.68.03-15.94-1.77-23.32-.293-1.193.01-2.243.91-3.15.728-.733,1.883-.835,2.74-.24,1.46,1,2.78,2.307,3.96,3.92,3.307,4.52,7.33,10.42,12.07,17.7.61.92,1.47,1.51,2.49,1.82.612.185.988.834.88,1.52ZM246.539,324.777l3.69-1.24c.262-.086.405-.368.32-.63l-.04-.12c-1.255-3.75-3.287-6.45-4.538-6.031,0,0-.001,0-.002,0l-.11.04c-1.255.41-1.257,3.783-.005,7.534.002.005.004.011.005.016l.04.11c.084.263.366.408.629.324.004-.001.008-.002.011-.004Z"/>
    <path class="st6" d="M171.349,305.9c5.07,1.473,7.157,9.632,4.661,18.224h0c-2.496,8.592-8.63,14.363-13.7,12.89h0c-5.07-1.473-7.157-9.632-4.661-18.224t0,0c2.496-8.592,8.63-14.363,13.7-12.89h0ZM168.452,310.839c-1.918-.28-4.164,4.229-5.016,10.071-.852,5.842.012,10.805,1.93,11.085,1.918.28,4.164-4.229,5.016-10.071.852-5.842-.012-10.805-1.93-11.085Z"/>
    <path class="st6" d="M186.319,327.557c-.483-.099-.955.209-1.06.69-.48,2.12-1.54,7.36-.32,9.43.533.88.583,1.777.15,2.69-.14.307-.419.526-.75.59-2.587.527-4.82.187-6.7-1.02-.907-.581-1.172-1.786-.591-2.694.035-.054.072-.106.111-.156,1.27-1.62,1.93-2.77,2.21-4.79.62-4.56,1.243-9.53,1.87-14.91.1-.833.103-1.897.01-3.19-.09-1.24-1.43-1.67-1.1-3.28.21-1.095,1.103-1.869,2.08-1.8,1.66.12,3.33.86,5.32.86,2.66.01,5.24.18,6.9,2.07,2.27,2.61,1.78,7.09.53,10.21-.59,1.46-2.16,2.04-2.7,3.65-.104.315-.031.662.19.91,2.8,3.08,2.6,5.27,2.43,9.62-.06,1.35.32,1.96,1.17,2.92.214.242.299.572.23.89-.38,1.587-1.223,2.45-2.53,2.59-2.967.313-4.603-1.153-4.91-4.4-.22-2.447-.373-5.21-.46-8.29-.04-1.427-.733-2.29-2.08-2.59ZM186.979,314.327l-1.41,8.59c-.066.425.225.823.65.89l.13.02c1.569.257,3.068-.92,3.35-2.63l.65-3.93c.278-1.712-.77-3.306-2.34-3.56h0s-.14-.02-.14-.02c-.422-.066-.819.219-.89.64Z"/>
    <path class="st6" d="M231.849,321.987c-.139.327-.131.701.02,1.03.53,1.17,2.33,1.9,3.18,3.14,2.44,3.49,2.55,10.47-1.16,13.36-1.067.827-3.01,1.337-5.83,1.53-2.613.18-5.207.557-7.78,1.13-1,.235-2.001-.386-2.236-1.386-.099-.422-.048-.866.146-1.254.853-1.727,1.16-3.703.92-5.93-.547-5.12-1.173-10.487-1.88-16.1-.077-.564-.275-1.106-.58-1.59-.473-.76-1.033-1.39-1.68-1.89-.758-.59-.895-1.683-.305-2.442.306-.394.767-.637,1.265-.668,3.44-.233,6.947-.707,10.52-1.42,2.067-.407,3.82.483,5.26,2.67,1.76,2.66,1.807,5.933.14,9.82ZM222.769,314.437l1.2,8.72c.057.413.436.703.85.65l.15-.02c1.625-.221,2.723-2.019,2.451-4.016,0-.001,0-.003,0-.004l-.41-2.99c-.275-1.997-1.815-3.434-3.44-3.21,0,0,0,0,0,0l-.15.02c-.413.057-.703.436-.65.85ZM225.129,332.407c.307,1.767.653,3.07,1.04,3.91.3.653.67.993,1.11,1.02,1.172.068,2.232-.755,2.51-1.95.233-.987.217-2.247-.05-3.78-.267-1.533-.677-2.727-1.23-3.58-.668-1.033-1.949-1.447-3.03-.98-.4.173-.63.617-.69,1.33-.08.927.033,2.27.34,4.03Z"/>
  </g>
</svg>